<svg id="svg" version="1.1" xmlns="http://www.w3.org/2000/svg" xmlns:xlink="http://www.w3.org/1999/xlink" width="400" height="400" viewBox="0, 0, 400,400"><g id="svgg"><path id="path0" d="M197.285 85.539 C 196.796 85.849,195.512 86.932,191.263 90.615 C 189.445 92.191,184.795 96.003,182.264 97.993 C 181.116 98.896,175.286 104.034,170.200 108.627 C 168.247 110.391,166.486 111.897,160.178 117.200 C 158.477 118.630,156.256 120.533,155.243 121.428 C 154.229 122.324,152.770 123.485,152.000 124.008 C 151.230 124.532,149.970 125.551,149.200 126.273 C 148.430 126.994,146.540 128.662,145.000 129.978 C 143.460 131.294,141.390 133.106,140.400 134.003 C 138.671 135.571,137.368 136.685,130.585 142.400 C 128.888 143.830,126.456 145.900,125.182 147.000 C 123.908 148.100,121.569 150.080,119.984 151.400 C 118.399 152.720,116.231 154.610,115.164 155.600 C 114.098 156.590,112.044 158.390,110.598 159.600 C 109.153 160.810,107.302 162.428,106.485 163.195 C 105.668 163.962,104.265 165.132,103.366 165.795 C 102.468 166.458,100.692 167.900,99.421 169.000 C 96.562 171.473,93.652 173.931,90.187 176.800 C 88.726 178.010,86.636 179.855,85.543 180.900 C 84.450 181.945,83.425 182.800,83.266 182.800 C 83.107 182.800,81.959 183.745,80.715 184.900 C 76.599 188.722,71.814 192.840,67.841 195.980 C 67.158 196.520,65.555 197.915,64.277 199.080 C 63.000 200.246,61.806 201.200,61.626 201.200 C 60.964 201.200,60.310 203.593,60.579 205.027 C 60.927 206.886,77.324 223.200,78.844 223.200 C 79.944 223.200,84.054 220.899,85.826 219.290 C 86.971 218.251,89.300 216.230,91.001 214.800 C 92.702 213.370,95.050 211.390,96.218 210.400 C 97.386 209.410,99.630 207.520,101.204 206.200 C 106.460 201.791,108.984 199.630,111.000 197.809 C 113.077 195.933,115.756 193.631,121.015 189.200 C 122.712 187.770,125.141 185.700,126.411 184.600 C 127.682 183.500,129.940 181.610,131.429 180.400 C 132.918 179.190,134.781 177.547,135.568 176.750 C 136.356 175.952,137.555 174.962,138.234 174.550 C 138.913 174.137,140.173 173.113,141.034 172.272 C 142.704 170.643,146.099 167.700,150.809 163.800 C 152.403 162.480,154.718 160.542,155.954 159.494 C 157.189 158.445,159.426 156.555,160.925 155.294 C 162.424 154.032,164.649 152.055,165.869 150.900 C 167.089 149.745,168.237 148.800,168.421 148.800 C 168.605 148.800,169.664 147.945,170.775 146.900 C 174.825 143.088,180.493 138.139,182.800 136.400 C 183.790 135.654,185.437 134.313,186.461 133.422 C 187.484 132.530,189.616 130.720,191.198 129.400 C 192.780 128.080,194.830 126.257,195.754 125.349 C 198.680 122.473,202.019 122.474,205.252 125.351 C 206.271 126.258,208.341 128.023,209.852 129.273 C 211.363 130.524,213.746 132.504,215.147 133.673 C 216.548 134.843,218.181 136.160,218.776 136.600 C 219.371 137.040,220.605 138.120,221.517 139.000 C 223.584 140.993,226.564 143.658,230.200 146.764 C 231.740 148.079,233.565 149.701,234.256 150.368 C 234.948 151.035,236.388 152.241,237.456 153.049 C 238.525 153.857,240.141 155.166,241.047 155.959 C 241.952 156.751,244.092 158.570,245.801 160.000 C 247.509 161.430,249.537 163.190,250.305 163.911 C 251.074 164.633,252.175 165.588,252.751 166.034 C 254.242 167.188,257.822 170.343,259.591 172.062 C 260.419 172.866,261.848 173.999,262.767 174.579 C 263.686 175.159,264.537 175.892,264.658 176.208 C 264.779 176.523,265.806 177.444,266.939 178.254 C 268.073 179.064,269.956 180.553,271.124 181.563 C 275.269 185.147,278.626 188.069,280.600 189.812 C 281.700 190.784,283.770 192.582,285.200 193.809 C 286.630 195.036,288.700 196.836,289.800 197.809 C 292.502 200.200,296.082 203.267,299.826 206.400 C 301.536 207.830,303.939 209.858,305.167 210.906 C 306.395 211.955,308.634 213.845,310.141 215.106 C 311.649 216.368,313.629 218.131,314.541 219.024 C 315.454 219.918,317.383 221.304,318.829 222.104 L 321.459 223.560 323.249 222.280 C 324.234 221.576,328.316 217.699,332.320 213.665 L 339.600 206.330 339.600 204.246 C 339.600 202.017,338.209 200.427,332.400 196.011 C 330.535 194.594,328.180 192.587,324.400 189.193 C 323.190 188.107,321.030 186.219,319.600 184.999 C 318.170 183.778,316.100 181.982,315.000 181.009 C 313.900 180.036,311.830 178.246,310.400 177.031 C 308.970 175.816,307.030 174.160,306.089 173.349 C 305.148 172.539,303.514 171.229,302.458 170.438 C 301.402 169.647,299.595 168.190,298.441 167.200 C 297.287 166.210,295.231 164.457,293.872 163.305 C 292.512 162.152,290.590 160.478,289.600 159.583 C 288.610 158.688,286.540 156.876,285.000 155.555 C 283.460 154.235,281.300 152.362,280.200 151.394 C 276.153 147.833,274.154 146.138,272.200 144.610 C 270.183 143.034,268.270 141.409,264.600 138.155 C 263.500 137.180,261.340 135.305,259.800 133.990 C 258.260 132.675,256.173 130.834,255.163 129.899 C 254.152 128.965,252.107 127.210,250.617 126.000 C 249.127 124.790,247.074 123.070,246.054 122.178 C 245.034 121.287,243.390 119.946,242.400 119.200 C 240.705 117.922,239.405 116.820,234.600 112.584 C 233.500 111.614,231.430 109.815,230.000 108.585 C 228.570 107.355,226.479 105.505,225.354 104.474 C 224.228 103.443,221.912 101.430,220.207 100.000 C 218.501 98.570,216.161 96.590,215.007 95.600 C 213.852 94.610,211.606 92.720,210.016 91.400 C 208.426 90.080,206.150 88.145,204.958 87.100 C 202.754 85.167,199.056 84.415,197.285 85.539 M263.800 101.560 C 261.791 102.064,260.821 102.770,260.571 103.912 C 260.440 104.510,260.260 105.235,260.170 105.523 C 260.081 105.811,260.124 108.732,260.266 112.015 L 260.524 117.984 262.569 120.400 C 263.694 121.728,265.207 123.176,265.932 123.617 C 266.656 124.058,267.942 125.089,268.789 125.909 C 269.636 126.729,271.560 128.432,273.065 129.694 C 274.569 130.955,276.811 132.845,278.046 133.894 C 279.282 134.942,281.593 136.880,283.182 138.200 C 284.771 139.520,287.243 141.635,288.676 142.900 C 290.109 144.165,291.507 145.200,291.785 145.200 C 292.062 145.200,292.965 145.659,293.792 146.220 C 297.181 148.520,297.112 148.960,297.160 124.674 C 297.203 102.918,297.236 103.278,295.088 102.104 C 293.704 101.347,266.532 100.875,263.800 101.560 M196.401 138.900 C 194.501 140.492,191.943 142.703,186.867 147.137 C 185.694 148.162,184.030 149.653,183.169 150.451 C 182.308 151.249,180.928 152.402,180.102 153.013 C 179.276 153.625,178.330 154.436,178.000 154.816 C 177.670 155.197,175.510 157.065,173.200 158.968 C 170.890 160.871,168.100 163.219,167.000 164.186 C 165.900 165.154,163.740 167.031,162.200 168.358 C 160.660 169.685,158.590 171.506,157.600 172.403 C 155.861 173.980,154.378 175.248,147.782 180.800 C 146.084 182.230,143.952 184.039,143.047 184.821 C 142.141 185.602,140.590 186.861,139.600 187.618 C 138.610 188.375,137.241 189.536,136.557 190.198 C 135.874 190.859,134.007 192.480,132.409 193.800 C 130.811 195.120,128.637 197.010,127.579 198.000 C 122.697 202.569,119.269 205.531,112.766 210.800 C 110.729 212.450,108.426 214.404,107.649 215.143 C 106.871 215.881,105.641 216.938,104.915 217.492 C 104.190 218.045,102.898 219.151,102.043 219.949 C 101.189 220.747,99.958 221.879,99.308 222.463 C 97.206 224.354,97.200 224.482,97.200 270.080 C 97.200 314.973,97.163 314.110,99.140 315.168 C 100.811 316.062,172.535 315.742,173.656 314.835 L 174.600 314.071 174.800 278.735 C 175.025 239.021,174.843 241.270,177.901 240.421 C 178.856 240.156,187.426 240.004,201.519 240.002 L 223.638 240.000 224.615 241.054 C 226.370 242.947,226.395 243.495,226.398 279.056 C 226.400 317.049,226.181 314.180,229.160 315.155 C 231.996 316.083,300.538 315.750,302.403 314.799 C 304.931 313.509,304.800 315.944,304.800 270.231 L 304.800 228.008 303.742 225.364 C 302.947 223.380,302.295 222.439,301.126 221.592 C 300.269 220.972,298.901 219.823,298.084 219.040 C 296.511 217.530,292.937 214.429,288.586 210.800 C 287.135 209.590,284.899 207.700,283.615 206.600 C 282.332 205.500,279.978 203.520,278.384 202.200 C 275.327 199.668,271.922 196.749,268.600 193.809 C 265.968 191.480,262.337 188.363,258.804 185.400 C 257.230 184.080,255.010 182.188,253.871 181.196 C 252.732 180.203,250.945 178.778,249.900 178.028 C 248.855 177.278,248.000 176.532,248.000 176.371 C 248.000 176.210,247.016 175.425,245.814 174.627 C 244.612 173.829,243.363 172.797,243.039 172.334 C 242.714 171.871,241.763 171.021,240.924 170.446 C 240.086 169.871,238.649 168.680,237.731 167.800 C 236.814 166.920,234.867 165.210,233.406 164.000 C 231.944 162.790,229.703 160.900,228.425 159.800 C 225.983 157.698,222.456 154.732,217.837 150.895 C 216.318 149.633,214.428 147.967,213.637 147.194 C 212.847 146.421,211.570 145.344,210.800 144.800 C 210.030 144.256,208.756 143.179,207.968 142.406 C 202.010 136.555,199.946 135.929,196.401 138.900 " stroke="none" fill="#fbfafa" fill-rule="evenodd"></path><path id="path1" d="M0.000 200.000 L 0.000 400.000 200.000 400.000 L 400.000 400.000 400.000 200.000 L 400.000 0.000 200.000 0.000 L 0.000 0.000 0.000 200.000 M204.958 87.100 C 206.150 88.145,208.426 90.080,210.016 91.400 C 211.606 92.720,213.852 94.610,215.007 95.600 C 216.161 96.590,218.501 98.570,220.207 100.000 C 221.912 101.430,224.228 103.443,225.354 104.474 C 226.479 105.505,228.570 107.355,230.000 108.585 C 231.430 109.815,233.500 111.614,234.600 112.584 C 239.405 116.820,240.705 117.922,242.400 119.200 C 243.390 119.946,245.034 121.287,246.054 122.178 C 247.074 123.070,249.127 124.790,250.617 126.000 C 252.107 127.210,254.152 128.965,255.163 129.899 C 256.173 130.834,258.260 132.675,259.800 133.990 C 261.340 135.305,263.500 137.180,264.600 138.155 C 268.270 141.409,270.183 143.034,272.200 144.610 C 274.154 146.138,276.153 147.833,280.200 151.394 C 281.300 152.362,283.460 154.235,285.000 155.555 C 286.540 156.876,288.610 158.688,289.600 159.583 C 290.590 160.478,292.512 162.152,293.872 163.305 C 295.231 164.457,297.287 166.210,298.441 167.200 C 299.595 168.190,301.402 169.647,302.458 170.438 C 303.514 171.229,305.148 172.539,306.089 173.349 C 307.030 174.160,308.970 175.816,310.400 177.031 C 311.830 178.246,313.900 180.036,315.000 181.009 C 316.100 181.982,318.170 183.778,319.600 184.999 C 321.030 186.219,323.190 188.107,324.400 189.193 C 328.180 192.587,330.535 194.594,332.400 196.011 C 338.209 200.427,339.600 202.017,339.600 204.246 L 339.600 206.330 332.320 213.665 C 328.316 217.699,324.234 221.576,323.249 222.280 L 321.459 223.560 318.829 222.104 C 317.383 221.304,315.454 219.918,314.541 219.024 C 313.629 218.131,311.649 216.368,310.141 215.106 C 308.634 213.845,306.395 211.955,305.167 210.906 C 303.939 209.858,301.536 207.830,299.826 206.400 C 296.082 203.267,292.502 200.200,289.800 197.809 C 288.700 196.836,286.630 195.036,285.200 193.809 C 283.770 192.582,281.700 190.784,280.600 189.812 C 278.626 188.069,275.269 185.147,271.124 181.563 C 269.956 180.553,268.073 179.064,266.939 178.254 C 265.806 177.444,264.779 176.523,264.658 176.208 C 264.537 175.892,263.686 175.159,262.767 174.579 C 261.848 173.999,260.419 172.866,259.591 172.062 C 257.822 170.343,254.242 167.188,252.751 166.034 C 252.175 165.588,251.074 164.633,250.305 163.911 C 249.537 163.190,247.509 161.430,245.801 160.000 C 244.092 158.570,241.952 156.751,241.047 155.959 C 240.141 155.166,238.525 153.857,237.456 153.049 C 236.388 152.241,234.948 151.035,234.256 150.368 C 233.565 149.701,231.740 148.079,230.200 146.764 C 226.564 143.658,223.584 140.993,221.517 139.000 C 220.605 138.120,219.371 137.040,218.776 136.600 C 218.181 136.160,216.548 134.843,215.147 133.673 C 213.746 132.504,211.363 130.524,209.852 129.273 C 208.341 128.023,206.271 126.258,205.252 125.351 C 202.019 122.474,198.680 122.473,195.754 125.349 C 194.830 126.257,192.780 128.080,191.198 129.400 C 189.616 130.720,187.484 132.530,186.461 133.422 C 185.437 134.313,183.790 135.654,182.800 136.400 C 180.493 138.139,174.825 143.088,170.775 146.900 C 169.664 147.945,168.605 148.800,168.421 148.800 C 168.237 148.800,167.089 149.745,165.869 150.900 C 164.649 152.055,162.424 154.032,160.925 155.294 C 159.426 156.555,157.189 158.445,155.954 159.494 C 154.718 160.542,152.403 162.480,150.809 163.800 C 146.099 167.700,142.704 170.643,141.034 172.272 C 140.173 173.113,138.913 174.137,138.234 174.550 C 137.555 174.962,136.356 175.952,135.568 176.750 C 134.781 177.547,132.918 179.190,131.429 180.400 C 129.940 181.610,127.682 183.500,126.411 184.600 C 125.141 185.700,122.712 187.770,121.015 189.200 C 115.756 193.631,113.077 195.933,111.000 197.809 C 108.984 199.630,106.460 201.791,101.204 206.200 C 99.630 207.520,97.386 209.410,96.218 210.400 C 95.050 211.390,92.702 213.370,91.001 214.800 C 89.300 216.230,86.971 218.251,85.826 219.290 C 84.054 220.899,79.944 223.200,78.844 223.200 C 77.324 223.200,60.927 206.886,60.579 205.027 C 60.310 203.593,60.964 201.200,61.626 201.200 C 61.806 201.200,63.000 200.246,64.277 199.080 C 65.555 197.915,67.158 196.520,67.841 195.980 C 71.814 192.840,76.599 188.722,80.715 184.900 C 81.959 183.745,83.107 182.800,83.266 182.800 C 83.425 182.800,84.450 181.945,85.543 180.900 C 86.636 179.855,88.726 178.010,90.187 176.800 C 93.652 173.931,96.562 171.473,99.421 169.000 C 100.692 167.900,102.468 166.458,103.366 165.795 C 104.265 165.132,105.668 163.962,106.485 163.195 C 107.302 162.428,109.153 160.810,110.598 159.600 C 112.044 158.390,114.098 156.590,115.164 155.600 C 116.231 154.610,118.399 152.720,119.984 151.400 C 121.569 150.080,123.908 148.100,125.182 147.000 C 126.456 145.900,128.888 143.830,130.585 142.400 C 137.368 136.685,138.671 135.571,140.400 134.003 C 141.390 133.106,143.460 131.294,145.000 129.978 C 146.540 128.662,148.430 126.994,149.200 126.273 C 149.970 125.551,151.230 124.532,152.000 124.008 C 152.770 123.485,154.229 122.324,155.243 121.428 C 156.256 120.533,158.477 118.630,160.178 117.200 C 166.486 111.897,168.247 110.391,170.200 108.627 C 175.286 104.034,181.116 98.896,182.264 97.993 C 184.795 96.003,189.445 92.191,191.263 90.615 C 198.035 84.745,197.252 85.214,200.296 85.206 C 202.706 85.200,202.866 85.265,204.958 87.100 M295.088 102.104 C 297.236 103.278,297.203 102.918,297.160 124.674 C 297.112 148.960,297.181 148.520,293.792 146.220 C 292.965 145.659,292.062 145.200,291.785 145.200 C 291.507 145.200,290.109 144.165,288.676 142.900 C 287.243 141.635,284.771 139.520,283.182 138.200 C 281.593 136.880,279.282 134.942,278.046 133.894 C 276.811 132.845,274.569 130.955,273.065 129.694 C 271.560 128.432,269.636 126.729,268.789 125.909 C 267.942 125.089,266.656 124.058,265.932 123.617 C 265.207 123.176,263.694 121.728,262.569 120.400 L 260.524 117.984 260.266 112.015 C 260.124 108.732,260.081 105.811,260.170 105.523 C 260.260 105.235,260.440 104.510,260.571 103.912 C 261.110 101.450,262.588 101.247,279.400 101.330 C 292.309 101.393,293.933 101.473,295.088 102.104 M204.239 139.100 C 205.503 140.145,207.181 141.633,207.968 142.406 C 208.756 143.179,210.030 144.256,210.800 144.800 C 211.570 145.344,212.847 146.421,213.637 147.194 C 214.428 147.967,216.318 149.633,217.837 150.895 C 222.456 154.732,225.983 157.698,228.425 159.800 C 229.703 160.900,231.944 162.790,233.406 164.000 C 234.867 165.210,236.814 166.920,237.731 167.800 C 238.649 168.680,240.086 169.871,240.924 170.446 C 241.763 171.021,242.714 171.871,243.039 172.334 C 243.363 172.797,244.612 173.829,245.814 174.627 C 247.016 175.425,248.000 176.210,248.000 176.371 C 248.000 176.532,248.855 177.278,249.900 178.028 C 250.945 178.778,252.732 180.203,253.871 181.196 C 255.010 182.188,257.230 184.080,258.804 185.400 C 262.337 188.363,265.968 191.480,268.600 193.809 C 271.922 196.749,275.327 199.668,278.384 202.200 C 279.978 203.520,282.332 205.500,283.615 206.600 C 284.899 207.700,287.135 209.590,288.586 210.800 C 292.937 214.429,296.511 217.530,298.084 219.040 C 298.901 219.823,300.269 220.972,301.126 221.592 C 302.295 222.439,302.947 223.380,303.742 225.364 L 304.800 228.008 304.800 270.231 C 304.800 315.944,304.931 313.509,302.403 314.799 C 300.538 315.750,231.996 316.083,229.160 315.155 C 226.181 314.180,226.400 317.049,226.398 279.056 C 226.395 243.495,226.370 242.947,224.615 241.054 L 223.638 240.000 201.519 240.002 C 187.426 240.004,178.856 240.156,177.901 240.421 C 174.843 241.270,175.025 239.021,174.800 278.735 L 174.600 314.071 173.656 314.835 C 172.535 315.742,100.811 316.062,99.140 315.168 C 97.163 314.110,97.200 314.973,97.200 270.080 C 97.200 224.482,97.206 224.354,99.308 222.463 C 99.958 221.879,101.189 220.747,102.043 219.949 C 102.898 219.151,104.190 218.045,104.915 217.492 C 105.641 216.938,106.871 215.881,107.649 215.143 C 108.426 214.404,110.729 212.450,112.766 210.800 C 119.269 205.531,122.697 202.569,127.579 198.000 C 128.637 197.010,130.811 195.120,132.409 193.800 C 134.007 192.480,135.874 190.859,136.557 190.198 C 137.241 189.536,138.610 188.375,139.600 187.618 C 140.590 186.861,142.141 185.602,143.047 184.821 C 143.952 184.039,146.084 182.230,147.782 180.800 C 154.378 175.248,155.861 173.980,157.600 172.403 C 158.590 171.506,160.660 169.685,162.200 168.358 C 163.740 167.031,165.900 165.154,167.000 164.186 C 168.100 163.219,170.890 160.871,173.200 158.968 C 175.510 157.065,177.670 155.197,178.000 154.816 C 178.330 154.436,179.276 153.625,180.102 153.013 C 180.928 152.402,182.308 151.249,183.169 150.451 C 184.694 149.037,186.166 147.739,191.687 142.937 C 199.706 135.961,200.244 135.797,204.239 139.100 " stroke="none" fill="#b3040c" fill-rule="evenodd"></path></g></svg>