<svg id="svg" version="1.1" xmlns="http://www.w3.org/2000/svg" xmlns:xlink="http://www.w3.org/1999/xlink" width="400" height="400" viewBox="0, 0, 400,400"><g id="svgg"><path id="path0" d="M222.600 84.466 C 219.631 86.104,218.215 88.651,217.150 94.269 C 216.702 96.632,215.753 99.834,214.975 101.603 C 214.215 103.330,213.230 106.560,212.785 108.780 C 212.340 111.000,211.367 114.208,210.623 115.908 C 209.878 117.609,208.961 120.620,208.584 122.600 C 208.207 124.580,207.284 127.588,206.534 129.286 C 205.783 130.983,204.742 134.403,204.222 136.886 C 203.701 139.368,202.723 142.570,202.048 144.000 C 201.373 145.430,200.451 148.449,199.998 150.708 C 199.546 152.968,198.565 156.208,197.818 157.908 C 197.071 159.609,196.162 162.620,195.797 164.600 C 195.431 166.580,194.511 169.588,193.751 171.286 C 192.990 172.983,191.942 176.403,191.422 178.886 C 190.901 181.368,189.923 184.570,189.248 186.000 C 188.573 187.430,187.651 190.449,187.198 192.708 C 186.746 194.968,185.765 198.208,185.018 199.908 C 184.271 201.609,183.362 204.620,182.997 206.600 C 182.631 208.580,181.717 211.575,180.964 213.255 C 180.211 214.936,179.220 218.176,178.762 220.455 C 178.303 222.735,177.326 225.950,176.590 227.600 C 175.811 229.349,174.981 232.185,174.600 234.400 C 174.212 236.660,173.398 239.419,172.593 241.208 C 171.848 242.862,170.797 246.299,170.258 248.845 C 169.719 251.391,168.793 254.430,168.200 255.600 C 167.607 256.770,166.681 259.809,166.142 262.355 C 165.603 264.901,164.553 268.338,163.808 269.992 C 163.064 271.647,162.158 274.620,161.794 276.600 C 161.430 278.580,160.517 281.575,159.764 283.255 C 159.011 284.936,158.020 288.176,157.562 290.455 C 157.103 292.735,156.126 295.950,155.391 297.600 C 154.656 299.250,153.681 302.470,153.225 304.755 C 152.766 307.054,151.771 310.292,150.998 312.005 C 149.395 315.554,149.198 317.814,150.364 319.256 L 151.128 320.200 163.553 320.316 C 177.368 320.446,177.903 320.361,178.994 317.882 C 181.742 311.636,182.437 309.659,183.173 306.000 C 183.638 303.690,184.569 300.630,185.242 299.200 C 185.916 297.770,186.890 294.572,187.407 292.093 C 187.925 289.615,188.883 286.455,189.536 285.073 C 190.190 283.690,191.116 280.678,191.595 278.379 C 192.074 276.081,193.065 272.850,193.797 271.200 C 194.529 269.550,195.503 266.335,195.962 264.055 C 196.420 261.776,197.411 258.536,198.164 256.855 C 198.917 255.175,199.831 252.180,200.197 250.200 C 200.562 248.220,201.471 245.209,202.218 243.508 C 202.965 241.808,203.940 238.600,204.385 236.380 C 204.830 234.160,205.806 230.951,206.554 229.251 C 207.302 227.550,208.297 224.278,208.766 221.979 C 209.234 219.681,210.169 216.630,210.842 215.200 C 211.516 213.770,212.493 210.557,213.014 208.060 C 213.536 205.563,214.510 202.350,215.178 200.921 C 215.847 199.491,216.760 196.494,217.208 194.261 C 217.655 192.027,218.573 189.030,219.248 187.600 C 219.923 186.170,220.905 182.953,221.429 180.451 C 221.954 177.949,222.929 174.709,223.596 173.251 C 224.264 171.793,225.239 168.516,225.764 165.968 C 226.288 163.421,227.204 160.375,227.800 159.200 C 228.396 158.025,229.312 154.991,229.837 152.459 C 230.363 149.927,231.342 146.681,232.014 145.245 C 232.686 143.808,233.671 140.579,234.203 138.069 C 234.735 135.558,235.715 132.338,236.382 130.913 C 237.049 129.488,237.960 126.494,238.408 124.261 C 238.855 122.027,239.773 119.030,240.448 117.600 C 241.123 116.170,242.101 112.968,242.622 110.486 C 243.142 108.003,244.192 104.583,244.955 102.886 C 245.718 101.188,246.619 98.360,246.957 96.600 C 247.706 92.697,248.100 91.340,248.974 89.651 C 250.119 87.436,249.694 85.948,247.615 84.900 C 245.572 83.870,224.348 83.501,222.600 84.466 M109.400 137.776 C 107.482 138.646,47.755 198.702,47.004 200.515 C 45.630 203.834,44.364 202.385,78.080 236.100 L 108.781 266.800 110.792 266.800 L 112.803 266.800 119.617 260.100 C 129.114 250.761,129.751 249.657,127.596 246.259 C 126.421 244.405,101.201 218.996,91.143 209.531 C 85.905 204.603,84.918 203.194,85.382 201.308 C 85.566 200.559,92.425 193.453,106.527 179.400 C 118.646 167.323,127.773 157.913,128.291 156.962 L 129.181 155.325 128.131 153.286 C 127.433 151.932,124.742 148.885,120.128 144.223 C 112.588 136.606,112.326 136.449,109.400 137.776 M280.071 144.246 C 275.153 149.254,272.840 151.915,272.105 153.414 L 271.069 155.526 272.319 157.463 C 273.007 158.528,282.656 168.435,293.763 179.478 C 318.226 203.801,316.870 201.761,311.873 206.721 C 270.660 247.628,271.600 246.641,271.600 249.051 C 271.600 250.666,273.501 252.975,280.714 260.123 L 287.499 266.845 289.556 266.723 L 291.614 266.600 321.868 236.400 C 353.078 205.245,353.596 204.692,353.599 202.480 C 353.601 200.003,352.283 198.571,322.656 168.875 C 290.019 136.162,291.604 137.642,288.914 137.378 L 287.000 137.190 280.071 144.246 " stroke="none" fill="#f8f2f3" fill-rule="evenodd"></path><path id="path1" d="M0.000 200.000 L 0.000 400.000 200.000 400.000 L 400.000 400.000 400.000 200.000 L 400.000 0.000 200.000 0.000 L 0.000 0.000 0.000 200.000 M247.615 84.900 C 249.694 85.948,250.119 87.436,248.974 89.651 C 248.100 91.340,247.706 92.697,246.957 96.600 C 246.619 98.360,245.718 101.188,244.955 102.886 C 244.192 104.583,243.142 108.003,242.622 110.486 C 242.101 112.968,241.123 116.170,240.448 117.600 C 239.773 119.030,238.855 122.027,238.408 124.261 C 237.960 126.494,237.049 129.488,236.382 130.913 C 235.715 132.338,234.735 135.558,234.203 138.069 C 233.671 140.579,232.686 143.808,232.014 145.245 C 231.342 146.681,230.363 149.927,229.837 152.459 C 229.312 154.991,228.396 158.025,227.800 159.200 C 227.204 160.375,226.288 163.421,225.764 165.968 C 225.239 168.516,224.264 171.793,223.596 173.251 C 222.929 174.709,221.954 177.949,221.429 180.451 C 220.905 182.953,219.923 186.170,219.248 187.600 C 218.573 189.030,217.655 192.027,217.208 194.261 C 216.760 196.494,215.847 199.491,215.178 200.921 C 214.510 202.350,213.536 205.563,213.014 208.060 C 212.493 210.557,211.516 213.770,210.842 215.200 C 210.169 216.630,209.234 219.681,208.766 221.979 C 208.297 224.278,207.302 227.550,206.554 229.251 C 205.806 230.951,204.830 234.160,204.385 236.380 C 203.940 238.600,202.965 241.808,202.218 243.508 C 201.471 245.209,200.562 248.220,200.197 250.200 C 199.831 252.180,198.917 255.175,198.164 256.855 C 197.411 258.536,196.420 261.776,195.962 264.055 C 195.503 266.335,194.529 269.550,193.797 271.200 C 193.065 272.850,192.074 276.081,191.595 278.379 C 191.116 280.678,190.190 283.690,189.536 285.073 C 188.883 286.455,187.925 289.615,187.407 292.093 C 186.890 294.572,185.916 297.770,185.242 299.200 C 184.569 300.630,183.638 303.690,183.173 306.000 C 182.437 309.659,181.742 311.636,178.994 317.882 C 177.903 320.361,177.368 320.446,163.553 320.316 L 151.128 320.200 150.364 319.256 C 149.198 317.814,149.395 315.554,150.998 312.005 C 151.771 310.292,152.766 307.054,153.225 304.755 C 153.681 302.470,154.656 299.250,155.391 297.600 C 156.126 295.950,157.103 292.735,157.562 290.455 C 158.020 288.176,159.011 284.936,159.764 283.255 C 160.517 281.575,161.430 278.580,161.794 276.600 C 162.158 274.620,163.064 271.647,163.808 269.992 C 164.553 268.338,165.603 264.901,166.142 262.355 C 166.681 259.809,167.607 256.770,168.200 255.600 C 168.793 254.430,169.719 251.391,170.258 248.845 C 170.797 246.299,171.848 242.862,172.593 241.208 C 173.398 239.419,174.212 236.660,174.600 234.400 C 174.981 232.185,175.811 229.349,176.590 227.600 C 177.326 225.950,178.303 222.735,178.762 220.455 C 179.220 218.176,180.211 214.936,180.964 213.255 C 181.717 211.575,182.631 208.580,182.997 206.600 C 183.362 204.620,184.271 201.609,185.018 199.908 C 185.765 198.208,186.746 194.968,187.198 192.708 C 187.651 190.449,188.573 187.430,189.248 186.000 C 189.923 184.570,190.901 181.368,191.422 178.886 C 191.942 176.403,192.990 172.983,193.751 171.286 C 194.511 169.588,195.431 166.580,195.797 164.600 C 196.162 162.620,197.071 159.609,197.818 157.908 C 198.565 156.208,199.546 152.968,199.998 150.708 C 200.451 148.449,201.373 145.430,202.048 144.000 C 202.723 142.570,203.701 139.368,204.222 136.886 C 204.742 134.403,205.783 130.983,206.534 129.286 C 207.284 127.588,208.207 124.580,208.584 122.600 C 208.961 120.620,209.878 117.609,210.623 115.908 C 211.367 114.208,212.340 111.000,212.785 108.780 C 213.230 106.560,214.215 103.330,214.975 101.603 C 215.753 99.834,216.702 96.632,217.150 94.269 C 218.215 88.651,219.631 86.104,222.600 84.466 C 224.348 83.501,245.572 83.870,247.615 84.900 M120.128 144.223 C 124.742 148.885,127.433 151.932,128.131 153.286 L 129.181 155.325 128.291 156.962 C 127.773 157.913,118.646 167.323,106.527 179.400 C 92.425 193.453,85.566 200.559,85.382 201.308 C 84.918 203.194,85.905 204.603,91.143 209.531 C 101.201 218.996,126.421 244.405,127.596 246.259 C 129.751 249.657,129.114 250.761,119.617 260.100 L 112.803 266.800 110.792 266.800 L 108.781 266.800 78.080 236.100 C 44.364 202.385,45.630 203.834,47.004 200.515 C 47.755 198.702,107.482 138.646,109.400 137.776 C 112.326 136.449,112.588 136.606,120.128 144.223 M291.914 138.358 C 294.106 139.957,352.332 198.642,352.956 199.880 C 354.891 203.727,356.542 201.788,321.868 236.400 L 291.614 266.600 289.556 266.723 L 287.499 266.845 280.714 260.123 C 273.501 252.975,271.600 250.666,271.600 249.051 C 271.600 246.641,270.660 247.628,311.873 206.721 C 316.870 201.761,318.226 203.801,293.763 179.478 C 282.656 168.435,273.007 158.528,272.319 157.463 L 271.069 155.526 272.105 153.414 C 272.840 151.915,275.153 149.254,280.071 144.246 L 287.000 137.190 288.914 137.378 C 289.967 137.481,291.317 137.922,291.914 138.358 " stroke="none" fill="#a8040c" fill-rule="evenodd"></path></g></svg>