<svg id="svg" version="1.1" xmlns="http://www.w3.org/2000/svg" xmlns:xlink="http://www.w3.org/1999/xlink" width="400" height="400" viewBox="0, 0, 400,400"><g id="svgg"><path id="path0" d="M123.900 65.320 L 122.800 65.754 122.800 70.058 C 122.800 74.021,122.623 75.032,121.504 77.459 C 121.090 78.357,121.228 79.907,122.048 83.600 C 122.426 85.300,122.567 114.057,122.672 210.056 L 122.806 334.312 124.164 334.956 C 126.415 336.024,184.700 335.927,185.939 334.853 C 186.796 334.109,186.800 334.030,186.800 316.295 L 186.800 298.485 187.960 297.242 L 189.121 296.000 200.160 296.000 C 215.065 296.000,213.600 293.714,213.600 316.964 C 213.600 333.228,213.644 334.316,214.331 334.938 C 215.436 335.938,274.135 335.953,276.240 334.954 L 277.600 334.309 277.600 200.165 L 277.600 66.021 276.420 65.410 C 274.926 64.638,125.850 64.549,123.900 65.320 M169.480 86.100 C 172.372 89.275,172.542 100.689,169.746 103.955 L 168.338 105.600 153.370 105.600 L 138.402 105.600 136.901 104.239 C 133.412 101.075,133.360 89.215,136.823 86.324 L 138.170 85.200 153.415 85.200 L 168.661 85.200 169.480 86.100 M217.595 85.675 C 220.921 86.442,222.010 89.083,221.989 96.331 C 221.962 105.391,222.024 105.367,198.983 105.519 L 180.966 105.637 179.983 104.519 C 177.283 101.445,177.137 88.963,179.769 86.141 L 180.600 85.249 198.069 85.224 C 210.208 85.207,216.167 85.345,217.595 85.675 M264.336 86.049 C 269.891 88.358,269.636 102.039,263.991 104.572 L 261.700 105.600 247.010 105.600 C 229.824 105.600,229.574 105.541,226.900 100.882 C 224.895 97.388,226.990 87.899,230.200 85.937 C 232.183 84.724,261.380 84.821,264.336 86.049 M169.459 122.186 C 172.268 124.154,172.557 137.530,169.841 139.866 L 168.755 140.800 153.397 140.800 C 135.102 140.800,135.826 140.972,134.817 136.400 C 133.439 130.157,134.563 123.452,137.212 122.112 C 138.777 121.320,168.319 121.388,169.459 122.186 M220.019 122.800 C 222.852 125.684,222.747 137.613,219.871 139.758 C 218.121 141.064,181.090 141.303,179.710 140.017 C 176.981 137.474,177.311 123.845,180.150 121.890 C 180.398 121.720,189.248 121.630,199.819 121.690 L 219.037 121.800 220.019 122.800 M263.795 122.047 C 264.688 122.295,265.965 123.099,266.695 123.874 L 268.000 125.257 268.000 130.067 C 268.000 135.669,267.290 138.839,265.890 139.488 C 265.400 139.715,264.497 140.103,263.881 140.350 C 263.119 140.657,257.747 140.800,247.019 140.800 C 227.673 140.800,228.369 140.978,226.963 135.680 C 225.269 129.302,226.531 124.050,230.200 122.208 C 231.715 121.447,261.126 121.306,263.795 122.047 M169.980 154.665 C 171.244 156.273,171.400 157.278,171.400 163.838 C 171.400 170.127,171.194 171.107,169.448 173.100 L 168.661 174.000 153.278 174.000 L 137.894 174.000 136.647 172.667 C 133.550 169.355,133.523 157.178,136.608 154.500 L 137.645 153.600 153.393 153.600 L 169.142 153.600 169.980 154.665 M218.913 154.138 C 222.426 155.607,223.334 168.311,220.206 172.234 C 218.931 173.833,217.286 173.964,198.270 173.983 L 180.739 174.000 179.929 173.090 C 177.331 170.174,177.183 157.348,179.713 154.394 C 180.588 153.371,216.518 153.137,218.913 154.138 M264.767 154.319 C 269.270 156.562,269.363 169.815,264.896 172.800 L 263.400 173.800 247.697 173.917 C 228.850 174.058,229.953 174.301,227.208 169.413 C 226.273 167.749,226.044 160.911,226.856 158.919 C 229.199 153.173,227.482 153.624,247.000 153.632 C 261.632 153.638,263.547 153.712,264.767 154.319 M170.027 190.829 C 171.552 192.462,171.759 193.872,171.485 200.773 L 171.253 206.600 169.760 207.900 L 168.267 209.200 153.517 209.200 C 133.877 209.200,134.876 209.736,134.516 199.000 C 134.191 189.309,133.574 189.614,153.540 189.606 L 168.879 189.600 170.027 190.829 M220.019 190.800 C 222.058 192.875,222.653 198.165,221.532 204.248 C 220.638 209.100,220.157 209.201,197.833 209.198 L 181.000 209.196 179.880 208.298 C 176.993 205.984,177.200 191.922,180.150 189.890 C 180.398 189.720,189.248 189.630,199.819 189.690 L 219.037 189.800 220.019 190.800 M263.795 190.047 C 264.688 190.295,265.965 191.099,266.695 191.874 L 268.000 193.257 268.000 197.998 C 268.000 209.245,268.104 209.189,247.046 209.196 C 226.662 209.202,226.907 209.331,226.519 198.392 L 226.356 193.784 227.678 192.297 C 230.124 189.546,229.708 189.605,246.800 189.605 C 256.834 189.605,262.756 189.759,263.795 190.047 M169.655 222.700 C 171.192 224.557,171.400 225.641,171.400 231.798 C 171.400 238.130,171.196 239.104,169.448 241.100 L 168.661 242.000 153.278 242.000 L 137.894 242.000 136.647 240.667 C 133.590 237.398,133.472 226.335,136.460 223.135 L 137.521 222.000 153.298 222.000 C 167.837 222.000,169.121 222.055,169.655 222.700 M218.654 222.409 C 222.312 223.684,223.404 236.223,220.206 240.234 C 218.931 241.833,217.286 241.964,198.270 241.983 L 180.739 242.000 179.929 241.090 C 177.308 238.147,177.177 225.774,179.738 222.900 L 180.539 222.000 199.010 222.000 C 210.567 222.000,217.920 222.153,218.654 222.409 M264.750 222.868 C 269.347 225.321,269.449 237.758,264.896 240.800 L 263.400 241.800 247.697 241.917 C 228.850 242.058,229.953 242.301,227.208 237.413 C 224.973 233.435,226.569 225.037,230.000 222.718 C 231.750 221.535,262.501 221.668,264.750 222.868 M169.914 258.776 C 172.443 261.305,172.323 274.217,169.752 276.274 L 168.600 277.196 153.185 277.198 L 137.770 277.200 136.449 276.097 C 134.799 274.720,134.441 273.060,134.417 266.684 C 134.383 257.462,133.887 257.697,153.469 257.642 L 168.738 257.600 169.914 258.776 M218.985 258.400 C 221.910 259.881,222.812 264.758,221.573 272.395 C 220.785 277.250,221.027 277.200,198.250 277.200 L 180.539 277.200 179.696 276.300 C 178.262 274.769,178.000 273.353,178.000 267.148 C 178.000 261.004,178.158 260.214,179.737 258.482 L 180.574 257.564 199.187 257.682 C 214.770 257.781,217.993 257.898,218.985 258.400 M263.600 258.118 C 267.586 259.558,268.003 260.391,267.990 266.880 C 267.970 277.470,268.550 277.185,246.949 277.194 C 228.234 277.201,227.876 277.112,226.886 272.176 C 225.424 264.887,226.403 260.564,230.000 258.433 C 231.729 257.408,260.880 257.135,263.600 258.118 " stroke="none" fill="#f7ecec" fill-rule="evenodd"></path><path id="path1" d="M0.000 200.000 L 0.000 400.000 200.000 400.000 L 400.000 400.000 400.000 200.000 L 400.000 0.000 200.000 0.000 L 0.000 0.000 0.000 200.000 M276.420 65.410 L 277.600 66.021 277.600 200.165 L 277.600 334.309 276.240 334.954 C 274.135 335.953,215.436 335.938,214.331 334.938 C 213.644 334.316,213.600 333.228,213.600 316.964 C 213.600 293.714,215.065 296.000,200.160 296.000 L 189.121 296.000 187.960 297.242 L 186.800 298.485 186.800 316.295 C 186.800 334.030,186.796 334.109,185.939 334.853 C 184.700 335.927,126.415 336.024,124.164 334.956 L 122.806 334.312 122.672 210.056 C 122.567 114.057,122.426 85.300,122.048 83.600 C 121.228 79.907,121.090 78.357,121.504 77.459 C 122.623 75.032,122.800 74.021,122.800 70.058 L 122.800 65.754 123.900 65.320 C 125.850 64.549,274.926 64.638,276.420 65.410 M136.823 86.324 C 133.360 89.215,133.412 101.075,136.901 104.239 L 138.402 105.600 153.370 105.600 L 168.338 105.600 169.746 103.955 C 172.542 100.689,172.372 89.275,169.480 86.100 L 168.661 85.200 153.415 85.200 L 138.170 85.200 136.823 86.324 M179.769 86.141 C 177.137 88.963,177.283 101.445,179.983 104.519 L 180.966 105.637 198.983 105.519 C 222.024 105.367,221.962 105.391,221.989 96.331 C 222.022 84.984,222.467 85.190,198.069 85.224 L 180.600 85.249 179.769 86.141 M230.200 85.937 C 226.990 87.899,224.895 97.388,226.900 100.882 C 229.574 105.541,229.824 105.600,247.010 105.600 L 261.700 105.600 263.991 104.572 C 269.636 102.039,269.891 88.358,264.336 86.049 C 261.380 84.821,232.183 84.724,230.200 85.937 M137.212 122.112 C 134.563 123.452,133.439 130.157,134.817 136.400 C 135.826 140.972,135.102 140.800,153.397 140.800 L 168.755 140.800 169.841 139.866 C 172.557 137.530,172.268 124.154,169.459 122.186 C 168.319 121.388,138.777 121.320,137.212 122.112 M180.150 121.890 C 177.311 123.845,176.981 137.474,179.710 140.017 C 181.090 141.303,218.121 141.064,219.871 139.758 C 222.747 137.613,222.852 125.684,220.019 122.800 L 219.037 121.800 199.819 121.690 C 189.248 121.630,180.398 121.720,180.150 121.890 M230.200 122.208 C 226.531 124.050,225.269 129.302,226.963 135.680 C 228.369 140.978,227.673 140.800,247.019 140.800 C 257.747 140.800,263.119 140.657,263.881 140.350 C 264.497 140.103,265.400 139.715,265.890 139.488 C 267.290 138.839,268.000 135.669,268.000 130.067 L 268.000 125.257 266.695 123.874 C 264.651 121.706,263.764 121.604,246.800 121.605 C 233.879 121.605,231.207 121.702,230.200 122.208 M136.608 154.500 C 133.523 157.178,133.550 169.355,136.647 172.667 L 137.894 174.000 153.278 174.000 L 168.661 174.000 169.448 173.100 C 171.194 171.107,171.400 170.127,171.400 163.838 C 171.400 157.278,171.244 156.273,169.980 154.665 L 169.142 153.600 153.393 153.600 L 137.645 153.600 136.608 154.500 M179.713 154.394 C 177.183 157.348,177.331 170.174,179.929 173.090 L 180.739 174.000 198.270 173.983 C 217.286 173.964,218.931 173.833,220.206 172.234 C 223.334 168.311,222.426 155.607,218.913 154.138 C 216.518 153.137,180.588 153.371,179.713 154.394 M229.504 154.443 C 228.493 155.198,228.109 155.846,226.856 158.919 C 226.044 160.911,226.273 167.749,227.208 169.413 C 229.953 174.301,228.850 174.058,247.697 173.917 L 263.400 173.800 264.896 172.800 C 269.363 169.815,269.270 156.562,264.767 154.319 C 262.464 153.172,231.060 153.282,229.504 154.443 M137.212 190.112 C 134.765 191.350,134.310 192.853,134.516 199.000 C 134.876 209.736,133.877 209.200,153.517 209.200 L 168.267 209.200 169.760 207.900 L 171.253 206.600 171.485 200.773 C 171.759 193.872,171.552 192.462,170.027 190.829 L 168.879 189.600 153.540 189.606 C 142.073 189.610,137.951 189.738,137.212 190.112 M180.150 189.890 C 177.200 191.922,176.993 205.984,179.880 208.298 L 181.000 209.196 197.833 209.198 C 220.157 209.201,220.638 209.100,221.532 204.248 C 222.653 198.165,222.058 192.875,220.019 190.800 L 219.037 189.800 199.819 189.690 C 189.248 189.630,180.398 189.720,180.150 189.890 M230.200 190.208 C 229.540 190.539,228.405 191.479,227.678 192.297 L 226.356 193.784 226.519 198.392 C 226.907 209.331,226.662 209.202,247.046 209.196 C 268.104 209.189,268.000 209.245,268.000 197.998 L 268.000 193.257 266.695 191.874 C 264.651 189.706,263.764 189.604,246.800 189.605 C 233.879 189.605,231.207 189.702,230.200 190.208 M136.460 223.135 C 133.472 226.335,133.590 237.398,136.647 240.667 L 137.894 242.000 153.278 242.000 L 168.661 242.000 169.448 241.100 C 171.196 239.104,171.400 238.130,171.400 231.798 C 171.400 225.641,171.192 224.557,169.655 222.700 C 169.121 222.055,167.837 222.000,153.298 222.000 L 137.521 222.000 136.460 223.135 M179.738 222.900 C 177.177 225.774,177.308 238.147,179.929 241.090 L 180.739 242.000 198.270 241.983 C 217.286 241.964,218.931 241.833,220.206 240.234 C 223.404 236.223,222.312 223.684,218.654 222.409 C 217.920 222.153,210.567 222.000,199.010 222.000 L 180.539 222.000 179.738 222.900 M230.000 222.718 C 224.697 226.302,225.111 238.769,230.621 241.383 C 231.832 241.958,233.852 242.021,247.697 241.917 L 263.400 241.800 264.896 240.800 C 269.449 237.758,269.347 225.321,264.750 222.868 C 262.501 221.668,231.750 221.535,230.000 222.718 M137.096 258.266 C 133.611 260.101,133.131 273.327,136.449 276.097 L 137.770 277.200 153.185 277.198 L 168.600 277.196 169.752 276.274 C 172.323 274.217,172.443 261.305,169.914 258.776 L 168.738 257.600 153.469 257.642 C 140.949 257.677,138.001 257.790,137.096 258.266 M179.737 258.482 C 178.158 260.214,178.000 261.004,178.000 267.148 C 178.000 273.353,178.262 274.769,179.696 276.300 L 180.539 277.200 198.250 277.200 C 223.096 277.200,221.988 277.734,221.997 265.759 C 222.003 257.634,222.558 257.830,199.187 257.682 L 180.574 257.564 179.737 258.482 M230.000 258.433 C 226.403 260.564,225.424 264.887,226.886 272.176 C 227.876 277.112,228.234 277.201,246.949 277.194 C 268.550 277.185,267.970 277.470,267.990 266.880 C 268.008 257.592,268.059 257.614,246.800 257.608 C 231.930 257.603,231.352 257.632,230.000 258.433 " stroke="none" fill="#b4040d" fill-rule="evenodd"></path></g></svg>