<svg id="svg" version="1.1" xmlns="http://www.w3.org/2000/svg" xmlns:xlink="http://www.w3.org/1999/xlink" width="400" height="121.96721311475409" viewBox="0, 0, 400,121.96721311475409"><g id="svgg"><path id="path0" d="M58.583 9.257 C 56.701 9.477,55.233 9.839,53.333 10.554 C 52.737 10.779,51.950 11.074,51.583 11.210 C 51.013 11.423,47.871 12.955,46.243 13.815 C 45.964 13.963,44.951 14.594,43.993 15.218 C 43.034 15.843,40.675 17.296,38.750 18.447 C 36.825 19.599,34.912 20.751,34.500 21.009 C 34.087 21.266,32.962 21.948,32.000 22.525 C 31.037 23.103,30.129 23.652,29.981 23.746 C 29.833 23.840,29.392 24.104,29.000 24.333 C 28.608 24.563,28.149 24.832,27.979 24.931 C 27.808 25.031,27.537 25.223,27.376 25.358 C 27.215 25.492,26.896 25.691,26.667 25.800 C 26.173 26.034,25.854 26.231,24.779 26.967 C 24.336 27.270,23.811 27.591,23.612 27.680 C 23.413 27.769,22.950 28.023,22.583 28.245 C 22.217 28.468,21.767 28.720,21.583 28.805 C 21.400 28.891,20.748 29.288,20.135 29.689 C 17.503 31.406,16.409 32.096,16.009 32.289 C 15.775 32.401,15.433 32.588,15.250 32.703 C 15.067 32.818,14.504 33.167,14.000 33.478 C 9.901 36.005,9.981 35.783,12.833 36.708 C 14.197 37.150,16.572 38.032,17.261 38.352 C 17.634 38.525,18.009 38.667,18.094 38.667 C 18.360 38.669,20.183 39.450,20.380 39.647 C 20.667 39.934,20.852 39.881,21.837 39.230 C 22.339 38.898,24.325 37.679,26.250 36.521 C 28.175 35.362,30.012 34.220,30.333 33.983 C 30.654 33.746,31.575 33.147,32.380 32.651 C 33.185 32.156,34.160 31.544,34.547 31.292 C 34.934 31.040,35.508 30.715,35.823 30.568 C 36.139 30.422,37.151 29.811,38.073 29.211 C 38.996 28.610,40.012 27.954,40.333 27.754 C 42.777 26.225,43.974 25.500,44.056 25.500 C 44.109 25.500,44.436 25.311,44.784 25.080 C 45.763 24.431,45.822 24.392,47.417 23.358 C 49.105 22.264,52.586 20.167,52.714 20.167 C 52.760 20.167,53.387 19.771,54.107 19.288 C 56.133 17.928,57.595 17.044,58.025 16.920 C 58.240 16.858,58.679 16.682,59.000 16.528 C 60.593 15.768,65.014 16.257,67.333 17.450 C 67.563 17.568,67.883 17.665,68.045 17.666 C 68.512 17.667,71.203 18.988,71.708 19.464 C 72.758 20.452,71.515 22.048,68.500 23.582 C 67.885 23.895,66.692 24.641,65.167 25.666 C 64.662 26.005,63.425 26.759,62.417 27.342 C 61.408 27.925,60.246 28.635,59.833 28.920 C 59.421 29.205,58.162 29.995,57.037 30.677 C 55.912 31.359,54.224 32.383,53.287 32.952 C 52.350 33.521,51.396 34.082,51.167 34.199 C 50.938 34.315,50.712 34.451,50.667 34.500 C 50.621 34.550,50.058 34.920,49.417 35.322 C 48.775 35.725,47.987 36.224,47.667 36.431 C 47.346 36.639,46.712 37.004,46.258 37.243 C 45.804 37.481,45.316 37.775,45.174 37.895 C 45.033 38.015,43.942 38.699,42.750 39.415 C 41.558 40.131,40.096 41.026,39.500 41.404 C 38.080 42.304,38.009 42.346,36.209 43.372 C 34.461 44.368,34.285 44.698,35.292 45.099 C 35.635 45.236,36.067 45.410,36.250 45.486 C 37.416 45.967,38.865 46.500,39.007 46.500 C 39.098 46.500,39.806 46.799,40.578 47.164 C 42.558 48.100,43.505 48.184,44.547 47.513 C 44.986 47.231,45.387 47.000,45.438 47.000 C 45.489 47.000,45.721 46.850,45.955 46.667 C 46.188 46.483,46.477 46.333,46.597 46.333 C 46.718 46.333,47.025 46.140,47.280 45.903 C 47.536 45.667,48.123 45.294,48.586 45.075 C 49.481 44.652,50.864 43.796,51.417 43.324 C 51.600 43.168,52.237 42.776,52.833 42.454 C 53.429 42.132,54.592 41.448,55.417 40.933 C 56.242 40.418,57.027 39.946,57.161 39.884 C 57.295 39.821,58.064 39.334,58.868 38.801 C 59.673 38.268,61.176 37.337,62.207 36.733 C 63.239 36.128,64.608 35.301,65.250 34.896 C 65.892 34.492,66.623 34.070,66.875 33.960 C 67.127 33.850,67.333 33.700,67.333 33.626 C 67.333 33.552,67.502 33.419,67.708 33.330 C 67.915 33.241,68.758 32.746,69.583 32.229 C 70.408 31.713,71.608 30.983,72.250 30.608 C 72.892 30.232,73.878 29.623,74.441 29.254 C 75.005 28.885,76.081 28.208,76.833 27.750 C 77.584 27.292,78.464 26.743,78.788 26.532 C 79.112 26.320,79.761 25.957,80.230 25.725 C 80.699 25.494,81.282 25.198,81.526 25.069 C 81.769 24.939,82.069 24.831,82.192 24.828 C 82.316 24.825,82.717 24.677,83.083 24.500 C 84.042 24.037,86.726 24.037,88.043 24.500 C 88.565 24.683,89.147 24.833,89.337 24.833 C 89.528 24.833,89.895 24.943,90.153 25.076 C 90.411 25.210,91.289 25.543,92.103 25.816 C 94.858 26.742,95.351 26.954,95.926 27.463 C 97.462 28.823,96.539 29.764,89.633 33.875 C 88.407 34.604,87.441 35.211,85.531 36.451 C 84.768 36.945,83.981 37.427,83.781 37.520 C 83.233 37.775,82.523 38.191,81.455 38.880 C 80.926 39.221,80.429 39.500,80.351 39.500 C 80.272 39.500,80.115 39.611,80.003 39.747 C 79.792 40.001,77.761 41.286,76.583 41.911 C 76.217 42.106,75.392 42.606,74.750 43.024 C 74.108 43.442,73.396 43.880,73.167 43.999 C 72.756 44.211,71.969 44.704,69.833 46.087 C 68.899 46.692,68.129 47.143,65.701 48.503 C 65.453 48.642,64.500 49.249,63.583 49.852 C 62.667 50.455,61.542 51.164,61.083 51.427 C 60.625 51.691,59.950 52.120,59.583 52.380 C 59.217 52.641,58.711 52.981,58.459 53.135 C 57.692 53.607,57.907 53.998,59.111 54.320 C 59.493 54.422,60.018 54.616,60.278 54.752 C 60.538 54.887,60.882 54.998,61.042 54.999 C 61.203 55.000,61.614 55.150,61.956 55.333 C 62.299 55.517,62.730 55.667,62.914 55.667 C 63.099 55.666,64.250 56.014,65.471 56.439 C 67.939 57.297,68.490 57.292,69.551 56.399 C 69.811 56.181,70.524 55.749,71.137 55.440 C 71.749 55.130,72.644 54.624,73.125 54.314 C 73.607 54.004,74.357 53.530,74.792 53.262 C 75.845 52.613,77.045 51.855,78.183 51.119 C 78.696 50.788,79.314 50.426,79.558 50.315 C 79.801 50.204,80.000 50.058,80.000 49.991 C 80.000 49.924,80.174 49.826,80.386 49.773 C 80.598 49.719,80.929 49.542,81.121 49.380 C 81.313 49.217,81.968 48.783,82.578 48.417 C 83.187 48.050,84.066 47.499,84.529 47.192 C 84.993 46.885,85.570 46.547,85.811 46.441 C 86.246 46.250,87.885 45.237,89.963 43.875 C 90.558 43.485,91.082 43.167,91.128 43.167 C 91.175 43.167,91.821 42.764,92.565 42.272 C 93.308 41.780,94.142 41.252,94.417 41.100 C 95.452 40.527,96.449 39.944,97.417 39.342 C 97.967 39.001,98.942 38.397,99.583 38.000 C 101.356 36.905,102.045 36.443,102.349 36.146 C 102.501 35.997,103.218 35.578,103.942 35.216 C 107.992 33.188,112.000 29.325,112.000 27.448 C 112.000 26.478,109.449 23.667,108.569 23.667 C 108.523 23.667,108.010 23.444,107.428 23.172 C 106.846 22.900,105.555 22.400,104.560 22.062 C 103.564 21.724,102.367 21.316,101.899 21.157 C 101.431 20.997,100.906 20.793,100.733 20.703 C 100.392 20.527,99.092 20.041,97.750 19.588 C 97.292 19.433,96.459 19.212,95.899 19.095 C 95.340 18.978,94.811 18.839,94.724 18.786 C 94.637 18.732,93.220 18.532,91.575 18.342 L 88.583 17.997 86.333 18.396 C 85.096 18.616,83.964 18.845,83.818 18.905 C 83.384 19.086,83.166 18.615,83.111 17.378 C 83.039 15.747,82.586 15.202,80.378 14.095 C 79.258 13.532,74.231 11.631,73.000 11.304 C 72.679 11.219,72.192 11.045,71.917 10.919 C 71.237 10.606,69.940 10.190,68.833 9.930 C 68.329 9.812,67.617 9.631,67.250 9.529 C 65.473 9.031,61.572 8.909,58.583 9.257 M359.792 41.347 C 359.466 41.536,359.345 46.997,359.655 47.487 C 359.780 47.685,360.934 47.726,366.694 47.737 C 374.334 47.751,374.581 47.786,375.510 48.968 C 376.067 49.676,375.937 54.336,375.336 55.212 C 374.583 56.311,375.700 56.242,357.083 56.336 C 347.733 56.384,340.065 56.440,340.042 56.461 C 339.824 56.663,340.035 62.144,340.264 62.232 C 340.409 62.288,347.763 62.333,356.606 62.333 C 374.375 62.333,374.534 62.342,375.522 63.330 C 377.122 64.930,376.841 70.027,375.098 71.026 L 374.417 71.417 357.255 71.500 L 340.093 71.583 339.898 71.975 C 339.632 72.508,339.708 77.608,339.986 77.886 C 340.258 78.158,370.752 78.264,374.640 78.007 C 382.290 77.500,384.351 75.219,384.118 67.517 C 383.972 62.685,383.370 61.191,381.043 59.889 C 379.875 59.234,379.841 58.930,380.878 58.393 C 382.984 57.305,383.524 55.805,383.518 51.066 C 383.509 44.276,381.724 42.110,375.504 41.341 C 373.650 41.112,360.187 41.117,359.792 41.347 " stroke="none" fill="#1a090a" fill-rule="evenodd"></path><path id="path1" d="M60.147 8.741 C 60.106 8.783,59.363 8.900,58.495 9.003 C 57.627 9.105,56.617 9.291,56.250 9.415 C 55.883 9.540,55.321 9.688,55.000 9.746 C 54.679 9.804,54.154 9.955,53.833 10.081 C 53.512 10.208,52.725 10.512,52.083 10.757 C 49.260 11.836,47.241 12.864,44.417 14.659 C 43.592 15.183,42.242 16.007,41.417 16.489 C 39.000 17.903,37.018 19.111,36.748 19.335 C 36.609 19.450,36.269 19.665,35.991 19.814 C 35.713 19.962,34.345 20.780,32.951 21.632 C 30.171 23.331,30.176 23.328,28.843 24.165 C 27.622 24.931,27.563 24.967,26.140 25.794 C 25.467 26.185,24.392 26.837,23.750 27.244 C 23.108 27.650,22.209 28.184,21.751 28.431 C 21.293 28.678,20.455 29.188,19.890 29.565 C 18.663 30.383,17.491 31.102,15.250 32.412 C 12.585 33.970,10.333 35.497,10.333 35.746 C 10.333 36.068,11.135 36.601,11.833 36.746 C 12.154 36.812,12.568 36.961,12.752 37.078 C 12.937 37.194,13.425 37.368,13.836 37.464 C 14.247 37.560,15.108 37.839,15.750 38.085 C 16.392 38.330,17.554 38.751,18.333 39.020 C 19.112 39.289,19.961 39.627,20.219 39.770 C 20.747 40.064,21.299 39.982,21.975 39.509 C 22.769 38.953,25.222 37.405,26.583 36.599 C 28.684 35.357,28.987 35.170,30.667 34.076 C 31.537 33.509,32.662 32.805,33.167 32.511 C 33.671 32.217,34.421 31.759,34.833 31.492 C 35.246 31.225,35.741 30.936,35.934 30.850 C 36.127 30.764,36.952 30.246,37.767 29.698 C 39.032 28.850,41.139 27.543,43.917 25.884 C 44.283 25.665,45.146 25.115,45.833 24.662 C 46.521 24.209,47.383 23.676,47.750 23.479 C 48.117 23.281,48.829 22.846,49.333 22.512 C 49.837 22.178,50.700 21.648,51.250 21.334 C 51.800 21.019,53.000 20.267,53.917 19.661 C 59.524 15.955,61.347 15.640,66.606 17.466 C 70.431 18.794,71.325 19.238,71.715 20.000 L 72.013 20.583 71.108 21.417 C 70.610 21.875,69.405 22.738,68.431 23.333 C 67.456 23.929,66.342 24.619,65.954 24.865 C 65.567 25.112,64.612 25.698,63.833 26.167 C 61.492 27.578,61.283 27.705,60.417 28.250 C 59.958 28.538,58.983 29.150,58.250 29.611 C 57.517 30.072,56.185 30.892,55.291 31.433 C 53.677 32.410,53.435 32.554,51.560 33.658 C 51.023 33.975,50.246 34.472,49.833 34.763 C 49.421 35.055,48.645 35.546,48.110 35.855 C 47.575 36.164,46.957 36.529,46.736 36.667 C 46.515 36.804,45.355 37.517,44.157 38.250 C 42.960 38.983,41.479 39.899,40.865 40.285 C 40.252 40.671,39.262 41.264,38.667 41.603 C 38.071 41.942,37.358 42.380,37.083 42.577 C 36.808 42.774,36.077 43.228,35.458 43.586 C 33.505 44.715,33.453 44.670,39.417 46.996 C 40.883 47.567,42.214 48.102,42.373 48.184 C 43.041 48.528,43.835 48.344,45.020 47.570 C 45.664 47.150,46.428 46.698,46.720 46.565 C 47.011 46.433,47.700 46.028,48.250 45.666 C 48.800 45.304,49.512 44.854,49.833 44.667 C 50.154 44.479,50.867 44.032,51.417 43.673 C 51.967 43.315,53.129 42.601,54.000 42.087 C 54.871 41.573,56.108 40.822,56.750 40.417 C 57.392 40.013,58.126 39.563,58.382 39.417 C 58.638 39.270,59.388 38.800,60.049 38.371 C 60.709 37.943,61.475 37.471,61.750 37.324 C 62.025 37.176,62.737 36.745,63.333 36.365 C 63.929 35.985,64.867 35.406,65.417 35.078 C 65.967 34.750,66.867 34.185,67.417 33.823 C 67.967 33.461,68.642 33.050,68.917 32.909 C 69.192 32.769,69.734 32.451,70.121 32.202 C 70.808 31.761,72.516 30.714,77.890 27.443 C 82.754 24.481,85.071 23.790,87.500 24.574 C 87.912 24.707,89.037 25.060,90.000 25.358 C 98.059 27.853,98.149 28.519,91.000 32.751 C 90.129 33.266,88.967 33.980,88.417 34.336 C 87.867 34.693,86.892 35.293,86.250 35.670 C 85.608 36.047,84.371 36.797,83.500 37.337 C 82.629 37.877,81.625 38.491,81.269 38.701 C 80.406 39.210,80.238 39.316,79.167 40.016 C 77.830 40.890,76.829 41.500,74.559 42.826 C 73.445 43.476,72.442 44.119,72.330 44.254 C 72.218 44.389,72.041 44.500,71.938 44.500 C 71.835 44.500,71.318 44.800,70.790 45.167 C 70.262 45.533,69.806 45.833,69.778 45.833 C 69.749 45.833,68.869 46.354,67.821 46.990 C 66.774 47.627,65.354 48.488,64.667 48.905 C 63.979 49.321,63.026 49.907,62.549 50.206 C 62.072 50.505,60.780 51.299,59.677 51.970 C 57.130 53.520,56.993 53.867,58.735 54.364 C 59.110 54.471,59.500 54.621,59.601 54.697 C 59.703 54.773,60.190 54.975,60.685 55.147 C 61.179 55.319,62.996 55.955,64.722 56.560 L 67.860 57.660 68.555 57.311 C 68.937 57.118,69.362 56.869,69.500 56.755 C 69.637 56.642,70.087 56.373,70.500 56.157 C 70.912 55.941,71.850 55.381,72.583 54.911 C 73.317 54.442,74.157 53.913,74.452 53.737 C 77.766 51.753,80.888 49.825,81.250 49.540 C 81.342 49.468,82.129 48.992,83.000 48.482 C 85.326 47.119,89.008 44.858,89.583 44.439 C 89.858 44.239,90.480 43.864,90.966 43.607 C 91.451 43.349,92.218 42.901,92.671 42.611 C 93.124 42.321,93.984 41.783,94.582 41.417 C 95.181 41.050,96.326 40.333,97.127 39.824 C 98.534 38.930,100.027 38.024,100.965 37.495 C 101.213 37.355,101.849 36.961,102.378 36.620 C 102.907 36.279,103.379 36.000,103.427 36.000 C 103.474 36.000,103.717 35.862,103.965 35.692 C 104.731 35.171,106.854 33.759,107.139 33.583 C 110.813 31.309,112.914 27.978,111.814 26.174 C 111.173 25.121,109.291 23.500,108.712 23.500 C 108.619 23.500,108.194 23.305,107.768 23.067 C 106.954 22.612,105.834 22.177,103.083 21.246 C 100.703 20.441,99.984 20.182,99.417 19.927 C 99.142 19.803,98.654 19.648,98.333 19.582 C 98.013 19.516,97.675 19.404,97.583 19.333 C 96.267 18.321,88.806 17.568,85.984 18.164 C 83.597 18.668,83.500 18.653,83.500 17.771 C 83.500 15.248,82.047 14.182,75.398 11.825 C 69.544 9.750,68.445 9.449,64.802 8.924 C 63.138 8.684,60.316 8.573,60.147 8.741 M64.658 9.171 C 65.717 9.265,66.883 9.426,67.250 9.529 C 67.617 9.631,68.329 9.812,68.833 9.930 C 69.940 10.190,71.237 10.606,71.917 10.919 C 72.192 11.045,72.679 11.219,73.000 11.304 C 74.231 11.631,79.258 13.532,80.378 14.095 C 82.586 15.202,83.039 15.747,83.111 17.378 C 83.166 18.615,83.384 19.086,83.818 18.905 C 83.964 18.845,85.096 18.616,86.333 18.396 L 88.583 17.997 91.575 18.342 C 93.220 18.532,94.637 18.732,94.724 18.786 C 94.811 18.839,95.340 18.978,95.899 19.095 C 96.459 19.212,97.292 19.433,97.750 19.588 C 99.092 20.041,100.392 20.527,100.733 20.703 C 100.906 20.793,101.431 20.997,101.899 21.157 C 102.367 21.316,103.564 21.724,104.560 22.062 C 105.555 22.400,106.846 22.900,107.428 23.172 C 108.010 23.444,108.523 23.667,108.569 23.667 C 109.449 23.667,112.000 26.478,112.000 27.448 C 112.000 29.325,107.992 33.188,103.942 35.216 C 103.218 35.578,102.501 35.997,102.349 36.146 C 102.045 36.443,101.356 36.905,99.583 38.000 C 98.942 38.397,97.967 39.001,97.417 39.342 C 96.449 39.944,95.452 40.527,94.417 41.100 C 94.142 41.252,93.308 41.780,92.565 42.272 C 91.821 42.764,91.175 43.167,91.128 43.167 C 91.082 43.167,90.558 43.485,89.963 43.875 C 87.885 45.237,86.246 46.250,85.811 46.441 C 85.570 46.547,84.993 46.885,84.529 47.192 C 84.066 47.499,83.187 48.050,82.578 48.417 C 81.968 48.783,81.313 49.217,81.121 49.380 C 80.929 49.542,80.598 49.719,80.386 49.773 C 80.174 49.826,80.000 49.924,80.000 49.991 C 80.000 50.058,79.801 50.204,79.558 50.315 C 79.314 50.426,78.696 50.788,78.183 51.119 C 77.045 51.855,75.845 52.613,74.792 53.262 C 74.357 53.530,73.607 54.004,73.125 54.314 C 72.644 54.624,71.749 55.130,71.137 55.440 C 70.524 55.749,69.811 56.181,69.551 56.399 C 68.490 57.292,67.939 57.297,65.471 56.439 C 64.250 56.014,63.099 55.666,62.914 55.667 C 62.730 55.667,62.299 55.517,61.956 55.333 C 61.614 55.150,61.203 55.000,61.042 54.999 C 60.882 54.998,60.538 54.887,60.278 54.752 C 60.018 54.616,59.493 54.422,59.111 54.320 C 57.907 53.998,57.692 53.607,58.459 53.135 C 58.711 52.981,59.217 52.641,59.583 52.380 C 59.950 52.120,60.625 51.691,61.083 51.427 C 61.542 51.164,62.667 50.455,63.583 49.852 C 64.500 49.249,65.453 48.642,65.701 48.503 C 68.129 47.143,68.899 46.692,69.833 46.087 C 71.969 44.704,72.756 44.211,73.167 43.999 C 73.396 43.880,74.108 43.442,74.750 43.024 C 75.392 42.606,76.217 42.106,76.583 41.911 C 77.761 41.286,79.792 40.001,80.003 39.747 C 80.115 39.611,80.272 39.500,80.351 39.500 C 80.429 39.500,80.926 39.221,81.455 38.880 C 82.523 38.191,83.233 37.775,83.781 37.520 C 83.981 37.427,84.768 36.945,85.531 36.451 C 87.441 35.211,88.407 34.604,89.633 33.875 C 96.539 29.764,97.462 28.823,95.926 27.463 C 95.351 26.954,94.858 26.742,92.103 25.816 C 91.289 25.543,90.411 25.210,90.153 25.076 C 89.895 24.943,89.528 24.833,89.337 24.833 C 89.147 24.833,88.565 24.683,88.043 24.500 C 86.726 24.037,84.042 24.037,83.083 24.500 C 82.717 24.677,82.316 24.825,82.192 24.828 C 82.069 24.831,81.769 24.939,81.526 25.069 C 81.282 25.198,80.699 25.494,80.230 25.725 C 79.761 25.957,79.112 26.320,78.788 26.532 C 78.464 26.743,77.584 27.292,76.833 27.750 C 76.081 28.208,75.005 28.885,74.441 29.254 C 73.878 29.623,72.892 30.232,72.250 30.608 C 71.608 30.983,70.408 31.713,69.583 32.229 C 68.758 32.746,67.915 33.241,67.708 33.330 C 67.502 33.419,67.333 33.552,67.333 33.626 C 67.333 33.700,67.127 33.850,66.875 33.960 C 66.623 34.070,65.892 34.492,65.250 34.896 C 64.608 35.301,63.239 36.128,62.207 36.733 C 61.176 37.337,59.673 38.268,58.868 38.801 C 58.064 39.334,57.295 39.821,57.161 39.884 C 57.027 39.946,56.242 40.418,55.417 40.933 C 54.592 41.448,53.429 42.132,52.833 42.454 C 52.237 42.776,51.600 43.168,51.417 43.324 C 50.864 43.796,49.481 44.652,48.586 45.075 C 48.123 45.294,47.536 45.667,47.280 45.903 C 47.025 46.140,46.718 46.333,46.597 46.333 C 46.477 46.333,46.188 46.483,45.955 46.667 C 45.721 46.850,45.489 47.000,45.438 47.000 C 45.387 47.000,44.986 47.231,44.547 47.513 C 43.505 48.184,42.558 48.100,40.578 47.164 C 39.806 46.799,39.098 46.500,39.007 46.500 C 38.865 46.500,37.416 45.967,36.250 45.486 C 36.067 45.410,35.635 45.236,35.292 45.099 C 34.285 44.698,34.461 44.368,36.209 43.372 C 38.009 42.346,38.080 42.304,39.500 41.404 C 40.096 41.026,41.558 40.131,42.750 39.415 C 43.942 38.699,45.033 38.015,45.174 37.895 C 45.316 37.775,45.804 37.481,46.258 37.243 C 46.712 37.004,47.346 36.639,47.667 36.431 C 47.987 36.224,48.775 35.725,49.417 35.322 C 50.058 34.920,50.621 34.550,50.667 34.500 C 50.712 34.451,50.938 34.315,51.167 34.199 C 51.396 34.082,52.350 33.521,53.287 32.952 C 54.224 32.383,55.912 31.359,57.037 30.677 C 58.162 29.995,59.421 29.205,59.833 28.920 C 60.246 28.635,61.408 27.925,62.417 27.342 C 63.425 26.759,64.662 26.005,65.167 25.666 C 66.692 24.641,67.885 23.895,68.500 23.582 C 70.446 22.591,72.167 21.071,72.167 20.342 C 72.167 19.591,69.208 17.670,68.045 17.666 C 67.883 17.665,67.563 17.568,67.333 17.450 C 65.014 16.257,60.593 15.768,59.000 16.528 C 58.679 16.682,58.240 16.858,58.025 16.920 C 57.595 17.044,56.133 17.928,54.107 19.288 C 53.387 19.771,52.760 20.167,52.714 20.167 C 52.586 20.167,49.105 22.264,47.417 23.358 C 45.822 24.392,45.763 24.431,44.784 25.080 C 44.436 25.311,44.109 25.500,44.056 25.500 C 43.974 25.500,42.777 26.225,40.333 27.754 C 40.012 27.954,38.996 28.610,38.073 29.211 C 37.151 29.811,36.139 30.422,35.823 30.568 C 35.508 30.715,34.934 31.040,34.547 31.292 C 34.160 31.544,33.185 32.156,32.380 32.651 C 31.575 33.147,30.654 33.746,30.333 33.983 C 30.012 34.220,28.175 35.362,26.250 36.521 C 24.325 37.679,22.339 38.898,21.837 39.230 C 20.852 39.881,20.667 39.934,20.380 39.647 C 20.183 39.450,18.360 38.669,18.094 38.667 C 18.009 38.667,17.634 38.525,17.261 38.352 C 16.572 38.032,14.197 37.150,12.833 36.708 C 9.981 35.783,9.901 36.005,14.000 33.478 C 14.504 33.167,15.067 32.818,15.250 32.703 C 15.433 32.588,15.775 32.401,16.009 32.289 C 16.409 32.096,17.503 31.406,20.135 29.689 C 20.748 29.288,21.400 28.891,21.583 28.805 C 21.767 28.720,22.217 28.468,22.583 28.245 C 22.950 28.023,23.413 27.769,23.612 27.680 C 23.811 27.591,24.336 27.270,24.779 26.967 C 25.854 26.231,26.173 26.034,26.667 25.800 C 26.896 25.691,27.215 25.492,27.376 25.358 C 27.537 25.223,27.808 25.031,27.979 24.931 C 28.149 24.832,28.608 24.563,29.000 24.333 C 29.392 24.104,29.833 23.840,29.981 23.746 C 30.129 23.652,31.037 23.103,32.000 22.525 C 32.962 21.948,34.087 21.266,34.500 21.009 C 34.912 20.751,36.825 19.599,38.750 18.447 C 40.675 17.296,43.034 15.843,43.993 15.218 C 44.951 14.594,45.964 13.963,46.243 13.815 C 47.871 12.955,51.013 11.423,51.583 11.210 C 51.950 11.074,52.737 10.779,53.333 10.554 C 56.873 9.222,60.393 8.792,64.658 9.171 M110.071 32.880 C 108.706 33.665,107.742 34.276,105.522 35.763 C 105.121 36.031,104.596 36.361,104.355 36.497 C 103.868 36.771,102.395 37.703,100.500 38.936 C 99.813 39.384,99.175 39.780,99.083 39.817 C 98.992 39.855,98.685 40.061,98.401 40.276 C 98.117 40.491,97.842 40.667,97.789 40.667 C 97.736 40.667,97.189 41.004,96.574 41.417 C 95.959 41.829,95.386 42.167,95.301 42.167 C 95.216 42.167,94.803 42.429,94.383 42.750 C 93.963 43.071,93.554 43.333,93.474 43.333 C 93.395 43.333,92.956 43.596,92.500 43.917 C 92.044 44.237,91.633 44.500,91.588 44.500 C 91.543 44.500,90.890 44.917,90.137 45.427 C 89.385 45.936,88.277 46.624,87.676 46.956 C 87.075 47.287,85.908 48.016,85.083 48.576 C 84.258 49.136,83.208 49.811,82.750 50.076 C 81.888 50.575,79.800 51.904,78.120 53.024 C 77.590 53.378,77.090 53.667,77.009 53.667 C 76.928 53.667,76.035 54.222,75.024 54.901 C 74.013 55.579,72.412 56.603,71.468 57.176 C 70.523 57.748,69.489 58.393,69.170 58.608 C 68.205 59.259,67.504 59.138,63.750 57.668 C 62.516 57.184,61.655 56.862,60.167 56.329 C 57.814 55.485,56.096 54.806,55.889 54.639 C 55.782 54.552,55.069 54.266,54.305 54.002 C 53.542 53.739,52.429 53.325,51.833 53.084 C 51.237 52.842,50.337 52.507,49.833 52.338 C 49.329 52.170,48.504 51.869,48.000 51.670 C 47.496 51.472,46.708 51.173,46.250 51.008 C 45.792 50.842,44.976 50.510,44.438 50.270 C 43.899 50.030,43.373 49.833,43.268 49.833 C 43.164 49.833,42.798 49.683,42.456 49.500 C 42.114 49.317,41.365 49.007,40.792 48.811 C 40.219 48.616,39.300 48.248,38.750 47.994 C 38.200 47.741,37.300 47.407,36.750 47.252 C 35.796 46.984,32.809 45.884,31.750 45.410 C 31.475 45.287,30.875 45.039,30.417 44.858 C 25.994 43.117,23.296 42.095,22.417 41.829 C 22.050 41.718,21.276 41.411,20.697 41.147 C 20.117 40.883,19.555 40.664,19.447 40.661 C 19.339 40.659,18.875 40.472,18.417 40.246 C 17.958 40.021,17.482 39.836,17.359 39.835 C 17.236 39.834,16.936 39.728,16.692 39.600 C 16.449 39.472,15.241 38.976,14.008 38.498 C 9.064 36.582,9.439 36.277,9.601 42.083 C 9.670 44.558,9.721 46.733,9.715 46.917 C 9.678 48.123,10.130 48.519,12.583 49.427 C 13.225 49.665,14.350 50.110,15.083 50.416 C 15.817 50.722,17.242 51.282,18.250 51.660 C 19.258 52.038,20.571 52.545,21.167 52.787 C 21.762 53.028,22.700 53.386,23.250 53.581 C 23.800 53.777,24.490 54.063,24.783 54.218 C 25.077 54.373,25.461 54.500,25.638 54.500 C 25.815 54.500,26.053 54.612,26.167 54.750 C 26.281 54.887,26.474 55.000,26.597 55.000 C 26.720 55.000,27.967 55.453,29.368 56.006 C 30.770 56.559,32.329 57.164,32.833 57.351 C 33.337 57.537,34.012 57.806,34.333 57.949 C 34.654 58.091,35.538 58.424,36.297 58.689 C 37.056 58.954,37.806 59.241,37.964 59.327 C 38.543 59.644,41.381 60.833,41.563 60.835 C 41.666 60.836,42.500 61.143,43.417 61.518 C 44.333 61.892,45.946 62.523,47.000 62.919 C 48.768 63.584,51.794 64.801,52.583 65.166 C 52.767 65.251,53.854 65.664,55.000 66.084 C 56.146 66.504,57.346 66.966,57.667 67.111 C 57.987 67.255,58.925 67.620,59.750 67.923 C 61.220 68.462,62.252 68.866,62.917 69.164 C 67.820 71.362,68.216 71.379,71.000 69.502 C 71.504 69.162,72.517 68.531,73.250 68.099 C 73.983 67.668,75.108 66.983,75.750 66.578 C 76.392 66.173,77.029 65.788,77.167 65.723 C 77.304 65.657,78.242 65.084,79.250 64.449 C 81.469 63.051,83.082 62.076,84.417 61.326 C 84.967 61.016,86.167 60.263,87.083 59.652 C 88.000 59.041,89.432 58.164,90.265 57.703 C 91.098 57.241,92.200 56.595,92.715 56.265 C 93.230 55.936,93.691 55.667,93.740 55.667 C 93.789 55.667,94.424 55.254,95.152 54.750 C 95.880 54.246,96.529 53.833,96.595 53.833 C 96.661 53.833,97.105 53.574,97.582 53.258 C 98.059 52.942,98.667 52.590,98.933 52.476 C 99.199 52.362,99.536 52.170,99.683 52.048 C 99.910 51.860,101.728 50.734,104.250 49.220 C 104.617 49.000,105.404 48.513,106.000 48.139 C 106.596 47.764,107.833 47.009,108.750 46.462 C 109.667 45.914,110.810 45.207,111.292 44.891 L 112.167 44.316 112.167 38.421 C 112.167 31.029,112.367 31.559,110.071 32.880 M140.509 41.293 L 140.147 41.585 140.207 55.501 L 140.266 69.417 140.693 70.934 C 141.994 75.560,144.639 77.472,150.583 78.084 C 154.409 78.477,176.664 78.442,177.153 78.042 C 177.498 77.760,177.509 77.645,177.464 74.667 L 177.417 71.583 176.833 71.384 C 176.405 71.238,173.211 71.182,164.833 71.172 C 153.144 71.158,152.679 71.135,151.147 70.476 C 150.029 69.995,149.037 68.668,148.825 67.369 C 148.738 66.839,148.668 60.938,148.668 54.048 L 148.667 41.680 148.302 41.340 C 147.780 40.854,141.101 40.813,140.509 41.293 M359.533 41.200 C 359.115 41.619,359.266 47.434,359.704 47.741 C 360.024 47.965,360.989 48.000,366.829 48.004 C 374.279 48.008,374.477 48.033,375.305 49.085 C 375.867 49.799,375.849 53.770,375.278 54.849 C 374.549 56.227,375.680 56.147,356.817 56.158 C 340.955 56.166,340.206 56.180,339.942 56.471 C 339.553 56.901,339.542 61.738,339.929 62.250 C 340.177 62.579,340.426 62.585,357.132 62.667 C 376.076 62.760,375.161 62.699,375.729 63.896 C 376.420 65.351,376.549 68.354,375.978 69.681 C 375.252 71.368,376.713 71.243,357.083 71.293 L 340.083 71.335 339.792 71.686 C 339.380 72.181,339.354 77.384,339.759 77.963 L 340.019 78.333 356.667 78.333 C 376.693 78.333,377.957 78.262,380.500 76.987 C 383.268 75.599,384.141 73.795,384.287 69.161 C 384.473 63.270,383.402 60.428,380.628 59.448 C 380.244 59.312,380.418 58.886,380.979 58.589 C 383.245 57.392,383.972 54.984,383.725 49.500 C 383.485 44.168,381.310 41.888,375.780 41.169 C 373.845 40.918,359.789 40.944,359.533 41.200 M375.504 41.341 C 381.724 42.110,383.509 44.276,383.518 51.066 C 383.524 55.805,382.984 57.305,380.878 58.393 C 379.841 58.930,379.875 59.234,381.043 59.889 C 383.370 61.191,383.972 62.685,384.118 67.517 C 384.351 75.219,382.290 77.500,374.640 78.007 C 370.752 78.264,340.258 78.158,339.986 77.886 C 339.708 77.608,339.632 72.508,339.898 71.975 L 340.093 71.583 357.255 71.500 L 374.417 71.417 375.098 71.026 C 376.841 70.027,377.122 64.930,375.522 63.330 C 374.534 62.342,374.375 62.333,356.606 62.333 C 347.763 62.333,340.409 62.288,340.264 62.232 C 340.035 62.144,339.824 56.663,340.042 56.461 C 340.065 56.440,347.733 56.384,357.083 56.336 C 375.700 56.242,374.583 56.311,375.336 55.212 C 375.937 54.336,376.067 49.676,375.510 48.968 C 374.581 47.786,374.334 47.751,366.694 47.737 C 360.934 47.726,359.780 47.685,359.655 47.487 C 359.345 46.997,359.466 41.536,359.792 41.347 C 360.187 41.117,373.650 41.112,375.504 41.341 M110.297 48.542 C 107.131 50.468,105.605 51.435,105.152 51.802 C 104.891 52.014,104.319 52.377,103.880 52.608 C 103.442 52.840,102.933 53.160,102.750 53.321 C 102.567 53.481,102.093 53.776,101.696 53.976 C 101.300 54.177,100.588 54.624,100.113 54.971 C 99.638 55.317,98.950 55.778,98.583 55.995 C 97.021 56.919,94.295 58.634,92.707 59.693 C 91.766 60.320,90.945 60.833,90.882 60.833 C 90.819 60.833,90.501 61.007,90.176 61.220 C 89.850 61.432,88.908 62.047,88.083 62.586 C 87.258 63.124,86.321 63.730,86.000 63.932 C 85.679 64.133,85.087 64.512,84.683 64.774 C 84.280 65.036,83.831 65.325,83.686 65.417 C 83.541 65.508,82.596 66.115,81.586 66.765 C 80.576 67.415,79.553 68.052,79.311 68.182 C 79.070 68.311,78.245 68.837,77.478 69.350 C 75.429 70.722,73.876 71.704,72.777 72.325 C 72.242 72.627,71.094 73.353,70.226 73.937 C 69.248 74.596,68.477 74.999,68.199 74.998 C 67.731 74.995,66.376 74.573,66.085 74.339 C 65.827 74.133,63.756 73.333,63.479 73.333 C 63.344 73.333,63.162 73.264,63.075 73.180 C 62.988 73.096,62.120 72.759,61.146 72.431 C 60.172 72.103,59.159 71.723,58.896 71.585 C 58.632 71.448,58.316 71.335,58.192 71.334 C 58.069 71.334,57.769 71.229,57.526 71.102 C 57.028 70.842,53.807 69.593,53.167 69.411 C 52.938 69.346,52.651 69.214,52.531 69.117 C 52.318 68.946,51.621 68.677,49.583 67.980 C 49.033 67.792,48.133 67.464,47.583 67.252 C 47.033 67.040,46.058 66.668,45.417 66.425 C 44.775 66.181,44.100 65.915,43.917 65.833 C 42.956 65.401,36.318 62.833,36.163 62.833 C 36.063 62.833,35.442 62.601,34.783 62.317 C 34.123 62.033,33.208 61.688,32.750 61.550 C 32.292 61.412,31.836 61.234,31.737 61.153 C 31.638 61.073,30.963 60.788,30.237 60.520 C 29.511 60.252,28.504 59.867,28.000 59.664 C 27.496 59.461,26.746 59.185,26.333 59.049 C 25.921 58.914,25.058 58.588,24.417 58.325 C 23.315 57.875,21.539 57.188,17.500 55.652 C 16.537 55.286,15.487 54.867,15.167 54.722 C 14.417 54.383,11.608 53.366,10.775 53.131 C 9.816 52.862,9.816 52.861,9.878 58.500 C 9.943 64.327,9.869 63.993,11.219 64.577 C 11.786 64.823,12.400 65.089,12.583 65.170 C 12.767 65.250,13.442 65.511,14.083 65.749 C 14.725 65.987,15.475 66.281,15.750 66.402 C 17.065 66.982,20.214 68.167,20.442 68.167 C 20.583 68.167,20.898 68.274,21.141 68.405 C 21.986 68.861,23.481 69.500,23.703 69.500 C 23.825 69.500,24.074 69.602,24.255 69.726 C 24.435 69.851,24.872 70.046,25.224 70.161 C 25.577 70.276,26.065 70.474,26.308 70.601 C 26.551 70.727,26.866 70.832,27.008 70.832 C 27.150 70.833,27.338 70.904,27.425 70.989 C 27.512 71.075,28.333 71.413,29.250 71.741 C 30.167 72.068,31.067 72.409,31.250 72.497 C 31.643 72.687,32.843 73.116,33.667 73.361 C 33.987 73.456,34.327 73.597,34.420 73.673 C 34.626 73.840,40.109 76.000,40.327 76.000 C 40.412 76.000,41.042 76.256,41.728 76.568 C 42.414 76.881,43.149 77.189,43.362 77.253 C 43.576 77.318,43.975 77.473,44.250 77.597 C 44.525 77.722,45.462 78.084,46.333 78.402 C 47.786 78.932,50.193 79.882,51.417 80.409 C 51.921 80.627,54.321 81.563,57.083 82.621 C 57.908 82.937,58.996 83.367,59.500 83.576 C 60.004 83.786,60.867 84.127,61.417 84.335 C 61.967 84.543,62.642 84.812,62.917 84.933 C 68.092 87.209,68.326 87.215,71.500 85.163 C 71.912 84.896,72.512 84.523,72.833 84.333 C 73.154 84.144,73.754 83.772,74.167 83.507 C 74.579 83.241,75.667 82.593,76.583 82.067 C 77.500 81.540,78.737 80.795,79.333 80.411 C 79.929 80.026,81.017 79.350,81.750 78.908 C 82.483 78.466,84.058 77.510,85.250 76.783 C 86.442 76.055,87.679 75.308,88.000 75.122 C 88.321 74.935,89.071 74.466,89.667 74.078 C 90.662 73.431,93.651 71.631,95.748 70.417 C 96.223 70.142,96.868 69.722,97.181 69.484 C 97.494 69.245,98.688 68.513,99.833 67.856 C 100.979 67.199,102.629 66.217,103.500 65.673 C 104.371 65.130,105.383 64.504,105.750 64.282 C 106.117 64.060,107.617 63.154,109.083 62.268 C 112.717 60.072,112.333 61.020,112.333 54.242 C 112.333 46.912,112.448 47.233,110.297 48.542 M200.363 48.676 C 199.903 48.861,199.846 53.748,200.300 54.200 C 200.463 54.363,201.717 54.439,205.383 54.508 C 212.065 54.634,212.888 55.012,213.119 58.065 C 213.258 59.909,214.502 59.735,200.350 59.850 C 187.370 59.956,187.045 59.975,184.978 60.782 C 181.862 61.998,181.133 63.453,181.039 68.641 C 180.913 75.611,182.680 77.615,189.456 78.182 C 192.310 78.421,211.236 78.286,213.083 78.014 C 219.710 77.037,221.222 74.713,221.478 65.108 C 221.771 54.120,220.859 51.882,215.083 49.412 C 214.580 49.197,213.077 48.925,210.917 48.659 C 209.356 48.466,200.852 48.480,200.363 48.676 M227.279 48.708 C 226.556 49.237,227.053 68.437,227.814 69.403 C 227.892 69.502,228.048 69.868,228.160 70.216 C 228.439 71.081,230.426 73.074,231.455 73.521 C 234.575 74.876,235.888 74.988,248.737 74.995 C 258.692 75.000,258.000 74.886,258.000 76.518 C 258.000 80.286,257.553 80.500,249.705 80.500 C 243.038 80.500,243.464 80.363,243.509 82.491 C 243.591 86.401,243.608 86.425,246.459 86.561 C 247.719 86.621,250.362 86.756,252.333 86.861 C 257.995 87.163,261.244 86.528,263.591 84.660 C 265.973 82.765,266.000 82.531,266.000 63.573 L 266.000 48.825 265.572 48.663 C 264.775 48.359,258.578 48.456,258.312 48.775 C 258.125 49.000,258.075 50.777,258.036 58.426 C 257.994 66.831,257.961 67.824,257.719 68.026 C 257.372 68.314,240.488 68.448,238.456 68.178 C 235.209 67.747,235.160 67.573,235.113 56.317 C 235.089 50.437,235.040 48.998,234.855 48.775 C 234.557 48.417,227.760 48.356,227.279 48.708 M282.833 48.599 C 282.604 48.634,281.517 48.781,280.417 48.927 C 279.317 49.073,278.192 49.290,277.917 49.411 C 272.684 51.702,271.845 53.731,271.836 64.107 C 271.826 76.251,274.329 78.333,288.942 78.333 L 294.015 78.333 294.405 77.943 C 294.780 77.568,294.795 77.460,294.773 75.210 C 294.740 71.893,295.206 72.167,289.595 72.167 C 281.326 72.167,280.355 71.786,280.197 68.484 C 280.134 67.169,280.158 67.016,280.457 66.856 C 280.680 66.737,285.513 66.664,295.376 66.631 C 309.676 66.584,309.972 66.577,310.332 66.251 L 310.699 65.919 310.622 60.251 C 310.505 51.714,309.783 50.415,304.333 48.942 C 303.166 48.627,284.609 48.330,282.833 48.599 M327.417 48.606 C 325.732 48.822,323.679 49.221,323.250 49.415 C 321.319 50.288,320.790 50.570,319.952 51.170 C 318.426 52.262,316.999 54.625,316.633 56.665 C 316.232 58.900,316.177 60.342,316.172 68.696 C 316.167 76.740,316.197 77.840,316.427 78.070 C 316.785 78.428,323.787 78.384,324.225 78.021 C 324.474 77.814,324.500 76.975,324.500 69.035 C 324.500 55.383,324.527 55.333,332.117 55.333 C 334.586 55.333,335.478 55.184,335.517 54.765 C 335.575 54.148,335.466 48.743,335.394 48.671 C 335.292 48.569,328.159 48.510,327.417 48.606 M300.750 55.162 C 302.076 55.468,302.333 56.006,302.333 58.471 C 302.333 61.534,303.725 61.181,291.488 61.218 C 279.122 61.256,280.162 61.433,280.174 59.288 C 280.188 56.813,280.881 55.751,282.823 55.227 C 283.747 54.978,299.702 54.920,300.750 55.162 M110.500 64.466 C 109.813 64.905,108.837 65.510,108.333 65.810 C 107.829 66.110,106.892 66.684,106.250 67.086 C 105.608 67.488,104.642 68.049,104.102 68.334 C 103.562 68.619,102.887 69.030,102.602 69.247 C 102.128 69.608,98.057 72.113,95.833 73.412 C 95.329 73.706,94.654 74.114,94.333 74.319 C 91.693 76.005,89.639 77.270,88.083 78.167 C 87.075 78.748,85.537 79.691,84.667 80.262 C 83.796 80.834,82.697 81.515,82.224 81.776 C 81.418 82.221,78.732 83.859,76.199 85.451 C 75.585 85.836,74.821 86.298,74.500 86.476 C 74.179 86.654,73.204 87.253,72.333 87.807 C 69.254 89.767,68.134 90.266,67.480 89.969 C 67.170 89.828,66.467 89.545,65.917 89.340 C 65.367 89.136,64.704 88.863,64.445 88.734 C 64.185 88.605,63.897 88.500,63.803 88.500 C 63.710 88.500,63.397 88.392,63.109 88.260 C 62.240 87.863,59.469 86.812,58.667 86.576 C 58.254 86.455,57.242 86.087,56.417 85.759 C 55.592 85.431,54.504 85.003,54.000 84.810 C 53.496 84.616,52.783 84.324,52.417 84.162 C 51.048 83.556,49.706 83.023,48.250 82.504 C 46.604 81.918,42.612 80.404,42.083 80.165 C 41.332 79.826,40.378 79.449,39.750 79.242 C 39.115 79.032,38.427 78.769,36.458 77.984 C 35.977 77.793,34.758 77.332,33.750 76.961 C 32.742 76.591,31.579 76.163,31.167 76.011 C 30.754 75.860,30.253 75.645,30.053 75.534 C 29.852 75.424,29.599 75.333,29.489 75.333 C 29.379 75.333,28.606 75.044,27.770 74.691 C 26.934 74.338,25.800 73.882,25.250 73.678 C 24.700 73.475,23.912 73.169,23.500 72.999 C 23.087 72.830,21.887 72.377,20.833 71.994 C 19.779 71.611,18.392 71.085,17.750 70.825 C 14.444 69.487,11.032 68.193,10.626 68.124 C 9.787 67.982,9.772 68.089,9.883 73.716 L 9.985 78.917 10.424 79.268 C 10.666 79.462,11.101 79.699,11.390 79.796 C 11.680 79.892,12.929 80.389,14.167 80.899 C 15.404 81.410,16.492 81.831,16.583 81.836 C 16.675 81.841,17.050 81.990,17.417 82.167 C 17.783 82.344,18.182 82.491,18.302 82.494 C 18.528 82.500,19.740 82.960,20.917 83.486 C 21.283 83.650,22.033 83.956,22.583 84.166 C 23.133 84.376,23.958 84.713,24.417 84.915 C 24.875 85.117,26.075 85.603,27.083 85.996 C 28.092 86.389,29.268 86.850,29.698 87.022 C 30.127 87.193,30.603 87.333,30.755 87.333 C 30.907 87.333,31.231 87.434,31.474 87.558 C 32.418 88.037,33.133 88.343,34.417 88.817 C 35.150 89.088,36.237 89.510,36.833 89.755 C 38.579 90.473,39.514 90.844,40.667 91.277 C 41.920 91.748,43.333 92.294,45.333 93.080 C 46.112 93.386,47.275 93.833,47.917 94.073 C 48.558 94.312,49.308 94.615,49.583 94.746 C 49.858 94.876,50.571 95.178,51.167 95.416 C 51.762 95.654,52.400 95.910,52.583 95.985 C 52.767 96.060,53.329 96.277,53.833 96.466 C 55.900 97.241,57.205 97.748,59.550 98.683 C 60.907 99.224,62.139 99.667,62.287 99.667 C 62.436 99.667,62.675 99.764,62.820 99.883 C 62.965 100.002,63.533 100.275,64.083 100.489 C 64.633 100.703,65.308 100.978,65.583 101.098 C 68.227 102.256,68.115 102.268,70.949 100.542 C 72.266 99.740,73.910 98.762,74.601 98.370 C 75.293 97.978,76.359 97.336,76.971 96.944 C 77.583 96.551,78.496 95.978,79.000 95.669 C 80.093 95.000,81.690 94.014,82.246 93.667 C 82.466 93.529,83.606 92.857,84.781 92.174 C 85.956 91.490,87.563 90.496,88.353 89.965 C 89.143 89.434,89.843 89.000,89.908 89.000 C 90.027 89.000,91.322 88.192,92.583 87.332 C 92.950 87.082,93.625 86.687,94.083 86.456 C 94.542 86.224,95.592 85.592,96.417 85.052 C 97.242 84.511,98.254 83.897,98.667 83.686 C 99.079 83.475,99.567 83.170,99.750 83.007 C 99.933 82.845,100.496 82.488,101.000 82.215 C 102.457 81.424,104.553 80.141,104.917 79.818 C 105.100 79.655,105.438 79.443,105.667 79.346 C 105.896 79.249,107.133 78.523,108.417 77.733 C 109.700 76.943,111.013 76.139,111.333 75.946 C 112.357 75.330,112.322 75.546,112.328 69.697 C 112.335 62.977,112.425 63.235,110.500 64.466 M213.001 65.252 C 213.155 65.437,213.189 66.087,213.130 67.710 C 213.017 70.837,212.561 71.637,210.500 72.322 C 208.804 72.885,191.474 72.792,190.393 72.214 C 188.596 71.253,188.675 66.279,190.501 65.382 C 191.486 64.898,212.606 64.775,213.001 65.252 " stroke="none" fill="#b80f11" fill-rule="evenodd"></path></g></svg>