<svg id="svg" version="1.1" xmlns="http://www.w3.org/2000/svg" xmlns:xlink="http://www.w3.org/1999/xlink" width="400" height="121.96721311475409" viewBox="0, 0, 400,121.96721311475409"><g id="svgg"><path id="path0" d="M58.833 9.249 C 56.656 9.503,54.138 10.161,52.417 10.926 C 48.013 12.884,46.078 13.878,44.167 15.167 C 43.663 15.507,41.712 16.708,39.833 17.836 C 37.954 18.964,35.367 20.537,34.083 21.332 C 32.800 22.127,31.075 23.169,30.250 23.648 C 29.425 24.127,28.432 24.721,28.044 24.968 C 26.015 26.258,24.238 27.346,22.667 28.261 C 21.704 28.821,19.904 29.917,18.667 30.696 C 17.429 31.475,15.742 32.508,14.917 32.991 C 10.569 35.538,10.340 35.782,11.792 36.304 C 12.319 36.494,13.688 36.986,14.833 37.399 C 15.979 37.811,17.704 38.460,18.667 38.841 C 21.116 39.809,20.819 39.842,23.167 38.343 C 24.313 37.611,25.775 36.707,26.417 36.335 C 27.058 35.962,28.108 35.325,28.750 34.918 C 29.392 34.511,30.292 33.947,30.750 33.665 C 31.208 33.382,32.146 32.784,32.833 32.337 C 33.521 31.889,34.646 31.203,35.333 30.812 C 36.021 30.421,37.408 29.566,38.417 28.911 C 39.425 28.256,41.225 27.134,42.417 26.418 C 43.608 25.702,45.296 24.654,46.167 24.089 C 47.038 23.525,48.913 22.362,50.333 21.504 C 51.754 20.647,53.645 19.469,54.535 18.886 C 59.373 15.718,61.556 15.377,66.417 17.032 C 73.704 19.513,73.918 20.576,67.833 24.060 C 67.237 24.401,65.652 25.371,64.311 26.215 C 62.969 27.059,61.139 28.200,60.245 28.750 C 59.350 29.300,57.973 30.150,57.184 30.639 C 56.395 31.128,54.737 32.133,53.500 32.873 C 52.262 33.612,50.869 34.463,50.403 34.765 C 48.931 35.719,46.776 37.040,46.040 37.440 C 45.650 37.652,45.125 37.970,44.874 38.146 C 44.313 38.538,41.056 40.548,37.543 42.669 C 34.217 44.676,34.226 44.588,37.250 45.768 C 38.533 46.268,40.192 46.935,40.936 47.250 C 43.394 48.289,43.540 48.254,47.561 45.636 C 48.098 45.286,48.602 45.000,48.679 45.000 C 48.757 45.000,49.420 44.592,50.153 44.092 C 50.886 43.593,52.183 42.778,53.035 42.281 C 55.615 40.775,57.183 39.825,58.584 38.916 C 59.318 38.441,61.531 37.075,63.501 35.882 C 65.471 34.689,68.158 33.046,69.472 32.231 C 84.886 22.674,83.962 22.933,92.333 25.802 C 98.682 27.978,98.145 29.143,88.167 34.834 C 87.846 35.017,86.908 35.600,86.083 36.129 C 85.258 36.659,84.067 37.381,83.437 37.733 C 82.806 38.086,81.943 38.601,81.520 38.879 C 78.388 40.934,76.683 42.000,76.530 42.000 C 76.452 42.000,75.982 42.283,75.486 42.629 C 74.990 42.975,73.946 43.626,73.167 44.075 C 72.387 44.524,71.150 45.280,70.417 45.755 C 69.683 46.230,67.958 47.282,66.583 48.093 C 65.208 48.903,63.746 49.799,63.333 50.083 C 62.921 50.367,61.758 51.103,60.750 51.718 C 58.453 53.120,58.092 53.400,58.204 53.691 C 58.315 53.979,60.075 54.655,64.478 56.100 L 67.873 57.214 68.562 56.857 C 69.981 56.120,71.341 55.340,72.445 54.629 C 73.071 54.225,73.826 53.750,74.123 53.572 C 76.530 52.135,79.724 50.165,82.000 48.713 C 82.871 48.158,85.008 46.845,86.750 45.794 C 88.492 44.744,91.078 43.154,92.496 42.260 C 93.915 41.366,95.378 40.484,95.746 40.299 C 96.115 40.115,96.904 39.644,97.500 39.253 C 98.096 38.862,99.146 38.198,99.833 37.779 C 100.521 37.359,101.496 36.721,102.000 36.361 C 102.504 36.002,103.404 35.465,104.000 35.168 C 108.282 33.035,112.383 28.768,111.852 26.996 C 111.547 25.977,109.149 23.667,108.397 23.667 C 108.313 23.667,107.984 23.527,107.664 23.357 C 107.133 23.073,99.945 20.413,97.583 19.626 C 93.046 18.115,87.741 17.820,84.105 18.877 C 83.256 19.124,82.940 18.765,83.095 17.731 C 83.410 15.632,81.969 14.555,76.000 12.424 C 74.304 11.819,72.542 11.184,72.083 11.013 C 67.494 9.300,63.244 8.735,58.833 9.249 M360.053 41.323 C 359.572 41.532,359.449 42.400,359.524 45.048 C 359.607 47.951,358.868 47.664,366.312 47.679 C 375.914 47.697,376.001 47.735,375.999 51.817 C 375.997 55.292,375.485 56.086,373.083 56.339 C 372.251 56.426,364.654 56.495,356.013 56.493 C 345.110 56.491,340.389 56.544,340.263 56.670 C 339.851 57.081,339.934 61.768,340.359 62.066 C 340.703 62.307,342.347 62.333,357.088 62.333 C 373.231 62.333,373.448 62.338,374.467 62.682 C 376.207 63.269,376.555 64.112,376.472 67.530 C 376.408 70.177,376.280 70.473,374.908 71.167 L 374.083 71.583 357.167 71.630 C 341.622 71.672,340.233 71.699,340.042 71.953 C 339.727 72.372,339.749 77.556,340.067 77.820 C 340.243 77.966,344.857 77.999,358.609 77.956 L 376.917 77.898 378.235 77.522 C 382.797 76.219,384.000 74.283,384.000 68.247 C 384.000 63.071,383.246 61.064,380.840 59.837 C 379.780 59.296,379.779 58.871,380.836 58.332 C 382.867 57.296,383.500 55.570,383.500 51.074 C 383.500 44.733,382.125 42.849,376.567 41.575 C 375.208 41.264,360.700 41.042,360.053 41.323 " stroke="none" fill="#ffffff" fill-rule="evenodd"></path><path id="path1" d="M110.137 33.219 C 109.558 33.522,108.746 33.989,108.333 34.257 C 107.236 34.969,107.099 35.052,106.480 35.396 C 106.170 35.568,105.604 35.961,105.222 36.271 C 104.840 36.580,104.476 36.833,104.414 36.833 C 104.351 36.833,103.764 37.175,103.108 37.593 C 102.453 38.010,101.504 38.609,101.000 38.924 C 99.869 39.629,96.659 41.680,95.245 42.601 C 94.667 42.978,93.869 43.453,93.472 43.657 C 93.075 43.861,91.813 44.649,90.667 45.408 C 89.521 46.167,88.171 47.026,87.667 47.317 C 87.162 47.608,86.075 48.293,85.250 48.839 C 84.425 49.385,83.412 50.014,83.000 50.236 C 82.587 50.458,81.652 51.058,80.921 51.570 C 80.190 52.081,79.508 52.500,79.405 52.500 C 79.302 52.500,79.093 52.638,78.940 52.807 C 78.787 52.976,78.232 53.331,77.706 53.596 C 77.180 53.861,75.700 54.780,74.417 55.638 C 73.133 56.496,71.746 57.392,71.333 57.629 C 70.921 57.866,70.174 58.327,69.673 58.653 C 68.437 59.458,67.494 59.450,65.412 58.616 C 64.585 58.284,63.047 57.705,61.996 57.328 C 58.688 56.145,58.439 56.049,57.469 55.603 C 56.948 55.363,56.459 55.167,56.383 55.167 C 56.307 55.167,55.966 55.017,55.624 54.834 C 55.282 54.651,54.046 54.167,52.876 53.760 C 49.367 52.538,46.388 51.411,44.667 50.656 C 44.071 50.394,43.252 50.064,42.848 49.921 C 42.443 49.779,42.031 49.600,41.931 49.523 C 41.831 49.447,41.337 49.254,40.833 49.095 C 40.329 48.936,39.092 48.481,38.083 48.083 C 37.075 47.685,35.987 47.285,35.667 47.195 C 34.854 46.965,31.522 45.685,30.917 45.369 C 30.341 45.069,27.021 43.786,25.667 43.341 C 25.162 43.175,24.210 42.805,23.551 42.519 C 22.891 42.234,22.179 42.000,21.967 41.999 C 21.756 41.999,21.349 41.856,21.063 41.682 C 20.777 41.507,20.024 41.177,19.389 40.948 C 18.754 40.719,17.751 40.307,17.159 40.033 C 16.567 39.758,15.708 39.421,15.250 39.284 C 14.792 39.148,13.615 38.728,12.636 38.351 C 9.628 37.195,9.761 36.973,9.919 42.897 C 10.060 48.158,10.049 48.117,11.451 48.669 C 11.982 48.878,12.642 49.145,12.917 49.263 C 13.570 49.542,15.249 50.193,16.917 50.812 C 20.716 52.224,25.687 54.210,26.359 54.586 C 26.602 54.722,26.881 54.833,26.979 54.833 C 27.129 54.833,29.617 55.759,31.667 56.578 C 31.988 56.706,32.775 57.008,33.417 57.249 C 34.058 57.489,35.183 57.935,35.917 58.238 C 38.931 59.487,39.989 59.908,41.417 60.425 C 42.242 60.724,43.854 61.358,45.000 61.834 C 46.146 62.310,47.496 62.832,48.000 62.993 C 48.504 63.155,49.254 63.445,49.667 63.638 C 51.040 64.280,52.890 64.997,57.167 66.544 C 58.038 66.859,59.074 67.282,59.470 67.485 C 59.866 67.687,60.691 68.028,61.303 68.242 C 61.916 68.457,63.054 68.907,63.833 69.243 C 68.002 71.039,68.370 71.039,70.833 69.246 C 71.246 68.946,71.921 68.520,72.333 68.300 C 72.746 68.079,73.383 67.709,73.750 67.477 C 74.117 67.245,75.354 66.500,76.500 65.821 C 77.646 65.143,79.060 64.266,79.643 63.873 C 80.225 63.479,80.938 63.038,81.226 62.892 C 81.514 62.747,81.900 62.492,82.083 62.327 C 82.267 62.161,82.979 61.742,83.667 61.395 C 84.354 61.048,85.554 60.340,86.333 59.822 C 88.275 58.529,89.653 57.667,89.776 57.667 C 89.832 57.667,90.731 57.142,91.773 56.500 C 92.815 55.858,93.714 55.333,93.772 55.333 C 93.830 55.333,94.236 55.075,94.674 54.760 C 95.582 54.109,97.379 52.981,98.525 52.346 C 99.264 51.937,100.887 50.944,104.000 49.000 C 104.779 48.513,106.054 47.738,106.833 47.278 C 107.612 46.818,108.475 46.281,108.750 46.085 C 109.025 45.888,109.599 45.549,110.026 45.331 C 110.452 45.113,111.052 44.729,111.359 44.479 L 111.917 44.023 111.930 39.553 C 111.952 31.963,112.027 32.229,110.137 33.219 M142.966 41.324 C 141.801 41.375,140.776 41.492,140.688 41.583 C 140.167 42.124,140.370 68.477,140.912 70.750 C 141.810 74.515,144.127 76.570,148.583 77.552 C 150.434 77.960,176.463 78.210,176.927 77.824 C 177.117 77.667,177.167 77.065,177.167 74.896 C 177.167 71.531,177.150 71.501,175.292 71.498 C 174.627 71.497,169.246 71.476,163.333 71.452 L 152.583 71.409 151.456 70.937 C 150.204 70.414,148.986 69.220,148.629 68.167 C 148.487 67.747,148.406 63.986,148.341 54.750 C 148.291 47.692,148.193 41.829,148.124 41.722 C 147.962 41.472,146.502 41.157,145.700 41.199 C 145.361 41.216,144.131 41.272,142.966 41.324 M110.555 48.728 C 109.990 49.033,109.165 49.543,108.722 49.860 C 108.279 50.178,107.354 50.762,106.667 51.159 C 105.979 51.555,105.284 51.995,105.122 52.135 C 104.711 52.491,103.284 53.380,102.000 54.080 C 101.404 54.405,100.579 54.931,100.167 55.249 C 99.754 55.567,99.117 55.987,98.750 56.183 C 98.383 56.378,97.821 56.736,97.501 56.977 C 97.181 57.219,96.394 57.723,95.751 58.097 C 94.727 58.694,91.397 60.796,88.917 62.412 C 88.458 62.711,87.446 63.354,86.667 63.842 C 85.282 64.708,83.005 66.169,80.833 67.584 C 80.237 67.973,78.813 68.878,77.667 69.596 C 76.521 70.313,75.358 71.065,75.083 71.267 C 74.808 71.468,73.931 72.016,73.134 72.484 C 72.337 72.953,71.071 73.746,70.322 74.247 C 68.546 75.437,68.232 75.487,66.667 74.829 C 65.979 74.540,64.404 73.942,63.167 73.499 C 59.122 72.054,57.681 71.519,57.338 71.336 C 56.770 71.032,53.786 69.815,53.167 69.635 C 52.846 69.542,52.508 69.405,52.417 69.332 C 52.325 69.259,51.163 68.825,49.833 68.368 C 47.753 67.653,40.997 65.053,38.417 63.975 C 37.958 63.784,36.946 63.407,36.167 63.138 C 34.431 62.538,31.925 61.571,31.250 61.241 C 30.717 60.980,27.248 59.640,26.000 59.213 C 25.106 58.907,21.758 57.618,20.583 57.128 C 19.790 56.797,18.586 56.338,16.750 55.666 C 16.292 55.499,15.114 55.026,14.132 54.616 C 12.178 53.799,10.804 53.411,10.406 53.565 C 10.027 53.710,10.116 63.531,10.500 63.888 C 10.765 64.134,12.691 64.957,14.500 65.596 C 16.228 66.206,18.518 67.103,19.538 67.570 C 20.055 67.806,20.551 68.000,20.639 68.000 C 20.727 68.000,21.350 68.230,22.024 68.512 C 22.698 68.794,23.813 69.248,24.500 69.522 C 25.188 69.796,25.892 70.098,26.066 70.193 C 26.240 70.288,26.765 70.502,27.233 70.668 C 29.359 71.421,34.544 73.397,35.750 73.914 C 37.183 74.529,40.318 75.729,41.000 75.924 C 41.229 75.990,41.787 76.230,42.241 76.457 C 42.694 76.685,43.444 77.003,43.907 77.164 C 44.919 77.516,47.415 78.493,49.250 79.256 C 49.983 79.561,50.771 79.863,51.000 79.927 C 51.229 79.991,51.717 80.180,52.083 80.347 C 52.450 80.513,54.212 81.208,56.000 81.890 C 59.902 83.380,62.036 84.247,62.866 84.679 C 63.205 84.856,63.568 85.000,63.673 85.000 C 63.777 85.000,64.716 85.337,65.759 85.750 C 68.419 86.802,68.499 86.788,71.699 84.721 C 72.313 84.324,72.853 84.000,72.900 84.000 C 72.946 84.000,73.456 83.675,74.034 83.277 C 74.611 82.879,75.796 82.154,76.667 81.666 C 77.537 81.177,78.473 80.621,78.746 80.430 C 79.018 80.240,79.932 79.671,80.777 79.167 C 81.621 78.662,83.311 77.642,84.531 76.899 C 85.752 76.156,87.162 75.298,87.667 74.993 C 88.171 74.688,89.258 74.011,90.083 73.489 C 91.454 72.621,92.588 71.933,93.917 71.164 C 95.252 70.392,96.826 69.400,97.524 68.894 C 97.949 68.584,98.549 68.217,98.857 68.077 C 99.165 67.937,100.129 67.377,101.000 66.832 C 101.871 66.287,103.108 65.542,103.750 65.175 C 104.392 64.809,105.667 64.020,106.583 63.422 C 107.500 62.825,108.813 62.004,109.500 61.599 C 111.586 60.370,111.733 60.264,111.951 59.833 C 112.212 59.318,112.259 49.265,112.004 48.594 C 111.801 48.059,111.797 48.059,110.555 48.728 M200.833 48.884 C 200.114 49.250,200.224 53.776,200.960 54.089 C 201.120 54.156,203.237 54.228,205.667 54.248 C 211.957 54.298,212.830 54.697,213.355 57.759 C 213.798 60.342,214.861 60.149,199.833 60.212 C 185.011 60.274,185.488 60.208,182.903 62.556 C 181.437 63.889,181.250 64.635,181.250 69.167 C 181.250 74.863,182.293 76.365,187.063 77.542 C 189.475 78.137,211.096 78.126,213.917 77.528 C 220.117 76.215,221.435 73.509,221.286 62.396 C 221.175 54.134,220.057 51.700,215.562 49.941 C 212.799 48.861,202.353 48.110,200.833 48.884 M227.843 48.825 C 227.189 48.989,227.154 49.504,227.210 58.041 C 227.267 66.730,227.328 67.458,228.168 69.447 C 228.732 70.785,230.674 73.000,231.543 73.296 C 231.840 73.397,232.758 73.725,233.583 74.025 L 235.083 74.569 246.390 74.660 L 257.696 74.750 258.033 75.166 C 258.530 75.780,258.409 78.107,257.826 79.161 C 257.041 80.578,257.070 80.572,250.300 80.667 C 243.307 80.765,243.903 80.558,243.952 82.863 C 244.016 85.884,243.860 85.753,247.693 86.000 C 249.221 86.099,250.908 86.251,251.443 86.339 C 254.981 86.918,261.496 86.035,262.587 84.829 C 262.750 84.650,263.209 84.312,263.608 84.078 C 264.401 83.613,264.788 82.995,265.276 81.412 C 265.664 80.155,265.763 49.363,265.380 48.980 C 265.080 48.680,259.113 48.630,258.711 48.925 C 258.437 49.124,258.411 49.805,258.333 58.562 C 258.243 68.799,258.302 68.265,257.228 68.502 C 256.423 68.680,240.562 68.666,238.760 68.486 C 234.949 68.106,234.954 68.122,234.838 57.361 C 234.756 49.731,234.729 49.124,234.453 48.923 C 234.142 48.695,228.684 48.615,227.843 48.825 M283.662 48.726 C 283.614 48.775,282.601 48.936,281.412 49.084 C 275.976 49.760,273.476 51.621,272.568 55.667 C 272.060 57.928,272.101 69.505,272.624 71.371 C 273.454 74.337,276.133 76.827,279.042 77.338 C 279.523 77.422,280.517 77.603,281.250 77.740 C 283.093 78.083,293.614 78.114,294.075 77.777 C 294.513 77.457,294.658 73.955,294.265 73.195 C 293.860 72.413,293.923 72.422,288.000 72.333 C 281.574 72.237,281.238 72.168,280.424 70.776 C 279.631 69.418,279.681 66.676,280.505 66.415 C 280.671 66.362,287.344 66.304,295.334 66.285 C 309.645 66.251,309.864 66.245,310.110 65.917 C 310.440 65.477,310.336 54.711,309.990 53.500 C 309.461 51.647,306.556 49.642,303.568 49.069 C 302.111 48.790,283.910 48.476,283.662 48.726 M328.000 48.840 C 320.915 49.551,317.714 52.058,316.714 57.677 C 316.255 60.255,316.278 77.425,316.740 77.763 C 317.240 78.129,323.536 78.107,323.905 77.738 C 324.220 77.423,324.195 78.275,324.171 68.667 C 324.138 55.354,324.203 55.237,331.778 55.012 C 333.536 54.959,335.036 54.854,335.112 54.778 C 335.352 54.537,335.279 49.212,335.032 48.965 C 334.771 48.704,330.178 48.622,328.000 48.840 M301.625 55.131 C 302.431 55.591,302.542 56.006,302.532 58.492 C 302.518 61.909,304.036 61.500,291.369 61.497 C 285.437 61.496,280.494 61.438,280.385 61.369 C 279.963 61.100,279.810 60.259,279.924 58.834 C 280.124 56.328,280.733 55.467,282.622 55.011 C 283.655 54.762,301.173 54.873,301.625 55.131 M110.750 64.659 C 110.292 64.925,109.692 65.272,109.417 65.430 C 109.142 65.587,108.204 66.178,107.333 66.744 C 106.462 67.309,105.225 68.061,104.583 68.415 C 103.942 68.769,102.779 69.470,102.000 69.973 C 99.056 71.874,97.592 72.769,96.167 73.539 C 95.074 74.130,94.191 74.673,92.789 75.615 C 92.218 75.999,90.829 76.861,89.704 77.532 C 88.579 78.202,87.042 79.136,86.288 79.607 C 85.534 80.078,84.204 80.894,83.333 81.421 C 82.462 81.947,81.255 82.705,80.651 83.106 C 80.046 83.506,79.480 83.833,79.392 83.833 C 79.303 83.833,78.223 84.467,76.991 85.241 C 75.758 86.015,74.300 86.925,73.750 87.263 C 73.200 87.601,72.300 88.155,71.750 88.494 C 68.606 90.429,68.048 90.635,67.206 90.175 C 66.723 89.911,65.022 89.234,63.000 88.499 C 60.292 87.516,58.143 86.703,56.500 86.040 C 55.721 85.725,54.771 85.368,54.390 85.246 C 54.009 85.125,53.296 84.835,52.807 84.603 C 51.745 84.099,48.713 82.945,47.083 82.424 C 46.441 82.219,45.680 81.929,45.391 81.780 C 45.103 81.631,44.251 81.284,43.498 81.009 C 42.745 80.734,42.044 80.440,41.939 80.355 C 41.835 80.271,41.487 80.122,41.167 80.025 C 40.846 79.928,39.346 79.387,37.833 78.822 C 36.321 78.257,34.346 77.545,33.445 77.240 C 32.545 76.936,31.711 76.606,31.594 76.509 C 31.477 76.411,30.976 76.191,30.482 76.019 C 29.988 75.848,28.346 75.219,26.833 74.623 C 25.321 74.028,23.858 73.461,23.583 73.365 C 23.308 73.269,21.883 72.728,20.417 72.163 C 18.950 71.598,17.262 70.950,16.667 70.724 C 16.071 70.497,15.171 70.135,14.667 69.919 C 12.577 69.024,11.098 68.500,10.662 68.500 C 10.061 68.500,10.026 68.944,10.187 74.555 C 10.316 79.044,10.327 79.096,11.304 79.477 C 13.579 80.367,15.898 81.257,16.583 81.504 C 17.042 81.669,18.129 82.060,19.000 82.372 C 19.871 82.684,20.883 83.096,21.250 83.287 C 21.617 83.479,22.367 83.802,22.917 84.006 C 23.467 84.210,24.217 84.508,24.583 84.668 C 24.950 84.829,25.662 85.127,26.167 85.332 C 26.671 85.537,27.330 85.808,27.633 85.936 C 27.935 86.064,28.872 86.395,29.716 86.671 C 30.560 86.948,31.475 87.279,31.750 87.407 C 32.025 87.535,33.412 88.099,34.833 88.659 C 36.254 89.220,37.773 89.826,38.208 90.006 C 39.268 90.444,40.389 90.886,41.500 91.305 C 44.336 92.374,46.553 93.238,47.583 93.675 C 48.225 93.948,48.975 94.239,49.250 94.322 C 49.525 94.405,50.387 94.748,51.167 95.085 C 51.946 95.422,52.996 95.808,53.500 95.945 C 54.004 96.081,54.586 96.301,54.793 96.434 C 55.000 96.567,55.750 96.891,56.460 97.153 C 59.061 98.114,60.777 98.798,61.457 99.145 C 61.840 99.340,62.276 99.500,62.426 99.500 C 62.576 99.500,62.898 99.605,63.141 99.733 C 65.844 101.160,68.212 101.742,69.217 101.227 C 70.040 100.805,72.525 99.312,73.083 98.903 C 73.358 98.702,73.958 98.348,74.417 98.117 C 74.875 97.886,75.874 97.277,76.636 96.765 C 77.398 96.253,78.057 95.833,78.100 95.833 C 78.214 95.833,81.471 93.863,82.250 93.322 C 82.617 93.067,83.592 92.481,84.417 92.018 C 85.242 91.556,86.362 90.894,86.907 90.547 C 89.464 88.919,92.326 87.136,93.057 86.715 C 93.501 86.459,94.439 85.900,95.141 85.472 C 95.842 85.044,97.200 84.219,98.157 83.638 C 100.411 82.272,101.588 81.553,102.751 80.833 C 103.269 80.512,103.894 80.147,104.138 80.020 C 104.383 79.894,104.733 79.658,104.917 79.497 C 105.100 79.335,105.713 78.971,106.280 78.688 C 106.846 78.406,107.354 78.102,107.409 78.013 C 107.463 77.925,108.050 77.542,108.712 77.163 C 112.432 75.036,112.167 75.616,112.167 69.598 C 112.167 63.647,112.213 63.808,110.750 64.659 M212.747 64.829 C 213.553 65.141,213.751 66.688,213.322 69.331 C 212.751 72.849,211.974 73.058,199.777 72.967 C 188.550 72.883,188.568 72.890,188.916 68.180 C 189.095 65.756,189.452 65.212,191.085 64.874 C 192.144 64.654,212.187 64.613,212.747 64.829 " stroke="none" fill="#b80f11" fill-rule="evenodd"></path><path id="path2" d="M58.417 8.841 C 54.050 9.562,49.836 11.185,45.538 13.802 C 44.230 14.598,42.462 15.662,41.609 16.167 C 37.988 18.308,36.870 19.006,36.670 19.246 C 36.554 19.385,36.390 19.500,36.307 19.500 C 36.223 19.500,34.765 20.344,33.067 21.375 C 31.370 22.406,29.854 23.325,29.699 23.417 C 29.544 23.508,29.004 23.852,28.500 24.179 C 26.851 25.251,26.593 25.407,25.750 25.842 C 25.292 26.078,24.504 26.538,24.000 26.865 C 23.496 27.192,22.333 27.908,21.417 28.455 C 14.875 32.364,11.430 34.513,10.621 35.189 C 9.903 35.789,10.141 36.395,11.201 36.666 C 12.170 36.913,14.953 37.905,16.583 38.585 C 17.317 38.891,18.242 39.226,18.640 39.331 C 19.038 39.435,19.656 39.674,20.014 39.860 C 20.784 40.261,21.175 40.172,22.542 39.280 C 23.023 38.967,24.504 38.058,25.833 37.262 C 27.162 36.465,28.962 35.355,29.833 34.796 C 30.704 34.236,32.017 33.433,32.750 33.012 C 33.483 32.590,34.496 31.975,35.000 31.646 C 38.205 29.553,39.510 28.735,41.284 27.702 C 42.382 27.063,44.272 25.890,45.483 25.095 C 46.694 24.300,47.812 23.603,47.968 23.546 C 48.123 23.490,48.850 23.056,49.583 22.582 C 50.317 22.109,51.404 21.433,52.000 21.080 C 52.596 20.727,53.723 20.011,54.505 19.489 C 59.072 16.441,61.746 15.892,65.417 17.249 C 66.333 17.587,67.614 18.040,68.262 18.254 C 71.616 19.363,72.373 20.241,70.958 21.383 C 70.150 22.036,66.344 24.500,64.240 25.733 C 62.737 26.613,59.599 28.539,58.500 29.255 C 57.904 29.643,56.817 30.317,56.083 30.753 C 54.018 31.980,52.683 32.789,51.469 33.551 C 49.821 34.585,46.132 36.836,45.038 37.474 C 44.513 37.781,43.475 38.437,42.731 38.932 C 41.988 39.428,41.328 39.833,41.266 39.833 C 41.204 39.833,40.950 39.974,40.702 40.145 C 39.961 40.657,35.869 43.167,35.775 43.167 C 35.443 43.167,34.000 44.268,34.000 44.521 C 34.000 45.016,35.688 45.861,38.833 46.942 C 39.521 47.178,40.308 47.504,40.583 47.667 C 41.178 48.018,42.797 48.500,43.385 48.500 C 43.798 48.500,45.738 47.446,47.833 46.083 C 48.429 45.695,49.779 44.858,50.833 44.222 C 51.887 43.586,53.350 42.702,54.083 42.258 C 54.817 41.813,56.167 40.996,57.083 40.441 C 58.000 39.887,59.401 39.017,60.198 38.508 C 60.994 38.000,62.028 37.358,62.496 37.083 C 62.963 36.808,63.737 36.331,64.215 36.023 C 64.692 35.715,66.658 34.507,68.583 33.338 C 73.767 30.189,74.331 29.841,75.333 29.172 C 75.837 28.835,76.962 28.155,77.833 27.661 C 78.704 27.168,79.679 26.584,80.000 26.365 C 82.309 24.787,85.355 24.100,87.363 24.705 C 90.323 25.596,91.443 25.971,93.083 26.619 C 95.215 27.462,96.167 28.039,96.167 28.489 C 96.167 28.863,94.933 30.144,94.236 30.493 C 93.969 30.627,93.412 30.972,93.000 31.259 C 92.587 31.547,91.290 32.375,90.117 33.099 C 87.391 34.783,82.684 37.658,82.250 37.903 C 81.831 38.140,80.668 38.873,79.583 39.583 C 79.125 39.883,78.436 40.306,78.052 40.522 C 75.758 41.819,74.131 42.797,73.272 43.399 C 71.934 44.335,70.325 45.342,68.833 46.178 C 68.146 46.562,66.796 47.368,65.833 47.967 C 63.962 49.133,62.982 49.737,61.000 50.946 C 56.979 53.399,56.581 53.999,58.594 54.569 C 59.553 54.841,60.707 55.253,61.417 55.576 C 61.692 55.702,62.329 55.929,62.833 56.081 C 63.337 56.233,64.050 56.471,64.417 56.609 C 64.783 56.747,65.711 57.082,66.478 57.354 L 67.873 57.847 68.728 57.400 C 69.199 57.154,69.808 56.787,70.083 56.584 C 70.358 56.382,71.146 55.899,71.833 55.511 C 73.469 54.589,75.994 53.054,78.430 51.500 C 81.028 49.842,81.209 49.731,83.023 48.677 C 83.881 48.178,84.933 47.541,85.359 47.260 C 85.786 46.980,86.521 46.525,86.993 46.250 C 87.464 45.975,88.428 45.375,89.134 44.916 C 90.481 44.039,93.823 42.000,93.911 42.000 C 93.940 42.000,94.568 41.606,95.307 41.125 C 96.046 40.644,97.071 39.987,97.585 39.667 C 98.533 39.075,98.893 38.860,100.619 37.855 C 101.149 37.546,101.955 37.029,102.409 36.706 C 102.863 36.383,103.728 35.848,104.332 35.518 C 108.782 33.083,112.375 29.467,112.317 27.483 C 112.255 25.384,109.526 23.234,105.000 21.718 C 104.313 21.488,102.737 20.942,101.500 20.505 C 96.631 18.786,95.605 18.506,91.667 17.827 C 90.005 17.540,87.258 17.632,85.667 18.027 C 83.913 18.463,83.667 18.402,83.667 17.530 C 83.667 15.165,80.245 12.904,74.000 11.142 C 73.679 11.052,72.667 10.721,71.750 10.407 C 69.678 9.697,67.923 9.248,66.226 8.992 C 65.506 8.883,64.542 8.733,64.083 8.659 C 62.735 8.441,60.383 8.517,58.417 8.841 M64.184 9.183 C 66.727 9.391,69.388 10.007,72.083 11.013 C 72.542 11.184,74.304 11.819,76.000 12.424 C 81.969 14.555,83.410 15.632,83.095 17.731 C 82.940 18.765,83.256 19.124,84.105 18.877 C 87.741 17.820,93.046 18.115,97.583 19.626 C 99.945 20.413,107.133 23.073,107.664 23.357 C 107.984 23.527,108.313 23.667,108.397 23.667 C 109.149 23.667,111.547 25.977,111.852 26.996 C 112.379 28.755,109.275 32.060,104.253 35.090 C 100.252 37.504,98.783 38.410,97.500 39.256 C 96.904 39.648,96.079 40.143,95.667 40.355 C 95.254 40.566,93.792 41.448,92.417 42.314 C 91.042 43.179,88.304 44.862,86.333 46.052 C 84.362 47.242,82.337 48.493,81.833 48.831 C 81.096 49.325,77.134 51.760,74.120 53.572 C 73.825 53.750,73.071 54.225,72.445 54.629 C 71.343 55.339,69.984 56.119,68.566 56.855 L 67.882 57.209 64.066 55.948 C 57.084 53.641,57.246 53.800,60.119 52.083 C 61.193 51.442,62.524 50.615,63.078 50.246 C 63.631 49.877,65.208 48.910,66.583 48.097 C 67.958 47.283,69.683 46.230,70.417 45.755 C 71.150 45.280,72.387 44.524,73.167 44.075 C 73.946 43.626,74.990 42.975,75.486 42.629 C 75.982 42.283,76.452 42.000,76.530 42.000 C 76.683 42.000,78.388 40.934,81.520 38.879 C 81.943 38.601,82.806 38.086,83.437 37.733 C 84.067 37.381,85.258 36.659,86.083 36.129 C 86.908 35.600,87.846 35.017,88.167 34.834 C 98.145 29.143,98.682 27.978,92.333 25.802 C 88.146 24.367,87.297 24.167,85.418 24.167 C 82.489 24.167,82.429 24.197,69.472 32.231 C 68.158 33.046,65.471 34.689,63.501 35.882 C 61.531 37.075,59.318 38.441,58.584 38.916 C 57.278 39.763,56.013 40.531,53.167 42.207 C 52.387 42.666,51.038 43.507,50.167 44.077 C 49.296 44.646,48.021 45.437,47.333 45.834 C 46.646 46.232,45.525 46.889,44.843 47.295 C 43.380 48.164,43.090 48.161,40.936 47.250 C 40.192 46.935,38.533 46.268,37.250 45.768 C 34.226 44.588,34.217 44.676,37.543 42.669 C 41.056 40.548,44.313 38.538,44.874 38.146 C 45.125 37.970,45.650 37.652,46.040 37.440 C 46.776 37.040,48.931 35.719,50.403 34.765 C 50.869 34.463,52.262 33.612,53.500 32.873 C 54.737 32.133,56.395 31.128,57.184 30.639 C 57.973 30.150,59.350 29.300,60.245 28.750 C 61.139 28.200,62.969 27.059,64.311 26.215 C 65.652 25.371,67.237 24.401,67.833 24.060 C 73.918 20.576,73.704 19.513,66.417 17.032 C 61.556 15.377,59.373 15.718,54.535 18.886 C 53.645 19.469,51.754 20.647,50.333 21.504 C 48.913 22.362,47.038 23.525,46.167 24.089 C 45.296 24.654,43.608 25.702,42.417 26.418 C 41.225 27.134,39.425 28.256,38.417 28.911 C 37.408 29.566,36.021 30.421,35.333 30.812 C 34.646 31.203,33.521 31.889,32.833 32.337 C 32.146 32.784,31.208 33.382,30.750 33.665 C 30.292 33.947,29.392 34.511,28.750 34.918 C 28.108 35.325,27.058 35.962,26.417 36.335 C 25.775 36.707,24.313 37.611,23.167 38.343 C 20.819 39.842,21.116 39.809,18.667 38.840 C 17.704 38.460,16.279 37.922,15.500 37.645 C 11.697 36.293,10.833 35.942,10.833 35.750 C 10.833 35.529,12.452 34.435,14.917 32.991 C 15.742 32.508,17.429 31.475,18.667 30.696 C 19.904 29.917,21.704 28.821,22.667 28.261 C 24.238 27.346,26.015 26.258,28.044 24.968 C 28.432 24.721,29.425 24.127,30.250 23.648 C 31.075 23.169,32.800 22.127,34.083 21.332 C 35.367 20.537,37.954 18.964,39.833 17.836 C 41.712 16.708,43.663 15.507,44.167 15.167 C 46.078 13.878,48.013 12.884,52.417 10.926 C 55.794 9.425,59.832 8.827,64.184 9.183 M110.972 32.483 L 110.417 32.986 111.042 32.798 C 111.916 32.536,111.872 32.247,111.896 38.421 L 111.917 44.023 111.359 44.479 C 111.052 44.729,110.452 45.115,110.026 45.335 C 108.993 45.869,108.476 46.198,108.551 46.273 C 108.650 46.373,109.679 45.819,110.667 45.135 C 111.171 44.786,111.676 44.500,111.788 44.500 C 112.145 44.500,112.177 43.884,112.130 37.919 C 112.078 31.404,112.092 31.469,110.972 32.483 M9.846 37.654 C 9.584 37.916,9.523 38.121,9.604 38.461 C 9.752 39.076,9.833 39.141,9.833 38.643 C 9.833 37.850,10.210 37.565,10.984 37.772 C 11.580 37.931,11.907 37.835,11.540 37.608 C 11.041 37.300,10.177 37.323,9.846 37.654 M14.397 39.015 C 14.844 39.196,15.241 39.315,15.278 39.278 C 15.387 39.169,14.228 38.666,13.891 38.676 C 13.722 38.681,13.949 38.833,14.397 39.015 M17.720 40.268 C 18.229 40.544,19.617 41.061,19.479 40.924 C 19.249 40.693,17.779 40.001,17.533 40.007 C 17.343 40.011,17.405 40.097,17.720 40.268 M359.401 41.017 C 358.923 41.545,358.917 47.281,359.393 47.807 C 359.695 48.141,359.886 48.151,366.643 48.200 C 375.742 48.266,375.417 48.128,375.417 51.909 C 375.417 56.314,376.895 56.000,356.170 56.000 C 340.766 56.000,340.039 56.014,339.776 56.305 C 339.316 56.813,339.370 61.964,339.840 62.469 L 340.180 62.833 356.548 62.836 C 377.557 62.839,376.000 62.475,376.000 67.382 C 376.000 71.392,377.177 71.168,356.109 71.155 C 341.064 71.145,339.946 71.164,339.650 71.431 C 339.180 71.857,339.164 77.795,339.632 78.219 C 340.002 78.553,373.071 78.661,376.083 78.338 C 379.308 77.992,380.922 77.372,382.322 75.942 C 384.239 73.984,384.409 73.348,384.402 68.167 C 384.395 62.398,383.917 61.142,381.060 59.394 C 380.778 59.221,380.844 59.118,381.800 58.247 C 383.360 56.825,383.663 56.107,383.881 53.311 C 384.469 45.782,382.644 42.306,377.550 41.248 C 374.116 40.535,360.000 40.355,359.401 41.017 M147.086 41.153 C 146.811 41.260,146.859 41.301,147.372 41.397 C 148.282 41.568,148.243 41.128,148.337 52.333 L 148.424 62.750 148.462 52.134 L 148.500 41.519 148.130 41.259 C 147.723 40.975,147.579 40.960,147.086 41.153 M140.533 41.367 C 140.423 41.477,140.333 41.679,140.333 41.815 C 140.333 42.011,140.379 42.001,140.550 41.768 C 140.669 41.605,141.025 41.411,141.341 41.336 L 141.917 41.201 141.325 41.184 C 141.000 41.174,140.643 41.257,140.533 41.367 M376.567 41.575 C 382.125 42.849,383.500 44.733,383.500 51.074 C 383.500 55.570,382.867 57.296,380.836 58.332 C 379.779 58.871,379.780 59.296,380.840 59.837 C 383.246 61.064,384.000 63.071,384.000 68.247 C 384.000 74.283,382.797 76.219,378.235 77.522 L 376.917 77.898 358.609 77.956 C 344.857 77.999,340.243 77.966,340.067 77.820 C 339.749 77.556,339.727 72.372,340.042 71.953 C 340.233 71.699,341.622 71.672,357.167 71.630 L 374.083 71.583 374.908 71.167 C 376.280 70.473,376.408 70.177,376.472 67.530 C 376.555 64.112,376.207 63.269,374.467 62.682 C 373.448 62.338,373.231 62.333,357.088 62.333 C 342.347 62.333,340.703 62.307,340.359 62.066 C 339.934 61.768,339.851 57.081,340.263 56.670 C 340.389 56.544,345.110 56.491,356.013 56.493 C 364.654 56.495,372.251 56.426,373.083 56.339 C 375.485 56.086,375.997 55.292,375.999 51.817 C 376.001 47.735,375.914 47.697,366.312 47.679 C 358.868 47.664,359.607 47.951,359.524 45.048 C 359.449 42.400,359.572 41.532,360.053 41.323 C 360.700 41.042,375.208 41.264,376.567 41.575 M20.667 41.412 C 20.667 41.575,21.664 42.000,22.033 41.994 L 22.417 41.989 22.023 41.661 C 21.682 41.377,20.667 41.190,20.667 41.412 M94.583 42.731 C 94.089 42.946,93.498 43.500,93.762 43.500 C 93.911 43.500,95.167 42.660,95.167 42.561 C 95.167 42.479,95.154 42.482,94.583 42.731 M24.500 42.903 C 25.121 43.234,25.667 43.376,25.667 43.205 C 25.667 42.999,24.902 42.665,24.450 42.673 C 24.096 42.680,24.097 42.687,24.500 42.903 M28.144 44.257 C 28.851 44.563,29.009 44.559,28.593 44.245 C 28.415 44.110,28.115 44.003,27.926 44.007 C 27.673 44.011,27.731 44.077,28.144 44.257 M31.333 45.583 C 31.881 45.896,32.152 45.900,31.740 45.589 C 31.562 45.454,31.304 45.344,31.167 45.345 C 31.022 45.345,31.092 45.445,31.333 45.583 M34.649 46.833 C 35.401 47.183,35.684 47.194,35.280 46.858 C 35.154 46.754,34.796 46.629,34.484 46.581 C 33.932 46.495,33.936 46.502,34.649 46.833 M9.840 47.355 C 9.836 47.595,9.946 47.886,10.083 48.000 C 10.395 48.258,10.396 48.182,10.090 47.477 C 9.857 46.940,9.846 46.935,9.840 47.355 M111.319 48.100 C 111.110 48.353,111.124 48.369,111.461 48.262 C 111.756 48.169,111.870 48.225,111.998 48.530 C 112.151 48.892,112.159 48.885,112.122 48.418 C 112.077 47.840,111.669 47.678,111.319 48.100 M11.407 48.922 C 11.585 49.057,11.847 49.168,11.990 49.169 C 12.133 49.170,12.438 49.211,12.667 49.260 C 12.896 49.309,12.708 49.195,12.250 49.008 C 11.277 48.610,10.950 48.577,11.407 48.922 M200.335 48.997 C 200.226 49.200,200.176 50.280,200.204 51.789 L 200.250 54.250 201.333 54.271 C 201.929 54.283,202.192 54.262,201.917 54.226 C 200.459 54.030,200.370 53.836,200.399 50.923 C 200.416 49.150,200.429 49.089,200.833 48.884 C 201.236 48.679,201.238 48.671,200.881 48.669 C 200.678 48.668,200.432 48.815,200.335 48.997 M227.200 48.867 C 227.068 48.998,227.009 49.612,227.025 50.658 L 227.050 52.250 227.165 50.702 C 227.283 49.102,227.354 48.921,227.917 48.786 C 228.186 48.721,228.169 48.702,227.825 48.686 C 227.591 48.675,227.310 48.757,227.200 48.867 M230.711 48.786 C 230.964 48.825,231.339 48.824,231.544 48.784 C 231.749 48.744,231.542 48.713,231.083 48.714 C 230.625 48.716,230.457 48.748,230.711 48.786 M262.044 48.786 C 262.297 48.825,262.672 48.824,262.877 48.784 C 263.082 48.744,262.875 48.713,262.417 48.714 C 261.958 48.716,261.791 48.748,262.044 48.786 M264.991 48.814 C 265.269 48.891,265.452 49.111,265.568 49.505 L 265.737 50.083 265.797 49.517 C 265.865 48.888,265.650 48.664,265.000 48.686 L 264.583 48.700 264.991 48.814 M258.324 49.275 C 258.231 49.518,258.180 49.790,258.210 49.880 C 258.240 49.970,258.348 49.771,258.450 49.438 C 258.664 48.739,258.573 48.621,258.324 49.275 M279.897 49.064 C 278.961 49.167,278.088 49.353,277.935 49.482 C 277.567 49.791,277.713 49.909,278.164 49.668 C 278.362 49.562,279.512 49.339,280.720 49.172 C 283.127 48.840,282.582 48.768,279.897 49.064 M213.333 49.315 C 215.798 49.849,217.132 50.486,218.539 51.803 C 219.569 52.766,219.559 52.610,218.521 51.522 C 217.930 50.902,217.372 50.528,216.479 50.150 C 215.803 49.865,215.137 49.535,215.000 49.417 C 214.862 49.299,214.112 49.158,213.333 49.105 L 211.917 49.008 213.333 49.315 M41.877 49.500 C 42.662 49.921,42.866 49.919,42.357 49.494 C 42.140 49.314,41.804 49.167,41.609 49.167 C 41.337 49.167,41.400 49.244,41.877 49.500 M108.133 50.038 C 106.949 50.837,106.367 51.415,107.444 50.723 C 108.579 49.993,109.710 49.167,109.569 49.169 C 109.485 49.171,108.839 49.562,108.133 50.038 M304.847 49.326 C 305.979 49.669,307.595 50.605,308.499 51.443 C 309.612 52.473,309.845 52.443,308.875 51.395 C 308.154 50.616,305.510 49.160,304.856 49.181 L 304.417 49.195 304.847 49.326 M323.250 49.514 C 322.792 49.830,322.785 49.848,323.167 49.732 C 323.396 49.663,323.921 49.512,324.333 49.397 L 325.083 49.189 324.417 49.179 C 324.001 49.173,323.562 49.299,323.250 49.514 M83.218 49.926 L 82.750 50.351 83.281 50.093 C 83.831 49.827,84.145 49.500,83.852 49.500 C 83.760 49.500,83.475 49.691,83.218 49.926 M102.333 50.029 C 101.824 50.371,101.717 50.495,102.000 50.416 C 102.229 50.351,102.602 50.119,102.830 49.900 C 103.364 49.383,103.254 49.411,102.333 50.029 M14.643 50.172 C 14.860 50.352,15.235 50.498,15.477 50.496 C 15.858 50.493,15.820 50.449,15.190 50.163 C 14.282 49.751,14.141 49.753,14.643 50.172 M276.000 50.418 C 275.250 50.820,273.445 52.500,273.764 52.500 C 273.856 52.500,274.229 52.196,274.591 51.825 C 274.954 51.453,275.606 50.920,276.042 50.640 C 276.477 50.361,276.833 50.102,276.833 50.066 C 276.833 49.972,276.826 49.975,276.000 50.418 M45.000 50.818 C 45.687 51.212,46.005 51.265,45.661 50.928 C 45.526 50.796,45.192 50.642,44.917 50.586 L 44.417 50.483 45.000 50.818 M81.734 50.859 L 81.417 51.218 81.875 50.923 C 82.348 50.619,82.437 50.500,82.192 50.500 C 82.115 50.500,81.909 50.662,81.734 50.859 M320.551 50.927 C 320.243 51.208,320.197 51.297,320.417 51.189 C 320.948 50.927,321.435 50.511,321.218 50.505 C 321.108 50.502,320.808 50.692,320.551 50.927 M234.883 51.500 C 234.883 52.004,234.915 52.210,234.953 51.958 C 234.991 51.706,234.991 51.294,234.953 51.042 C 234.915 50.790,234.883 50.996,234.883 51.500 M258.212 51.667 C 258.212 52.079,258.245 52.248,258.284 52.042 C 258.324 51.835,258.324 51.498,258.284 51.292 C 258.245 51.085,258.212 51.254,258.212 51.667 M80.179 51.800 C 79.865 51.956,79.574 52.187,79.533 52.314 C 79.449 52.570,80.385 52.085,80.700 51.708 C 80.920 51.445,80.877 51.453,80.179 51.800 M319.321 51.958 L 318.917 52.417 319.417 52.000 C 319.692 51.771,319.948 51.565,319.986 51.542 C 320.024 51.519,319.981 51.500,319.890 51.500 C 319.799 51.500,319.543 51.706,319.321 51.958 M21.500 52.605 C 21.500 52.716,23.360 53.529,23.438 53.451 C 23.472 53.417,23.051 53.194,22.500 52.957 C 21.950 52.719,21.500 52.561,21.500 52.605 M50.191 52.734 C 50.470 53.046,52.833 53.793,52.833 53.570 C 52.833 53.443,52.627 53.297,52.375 53.246 C 51.806 53.129,50.723 52.842,50.358 52.712 C 50.207 52.658,50.132 52.668,50.191 52.734 M78.083 53.064 C 77.610 53.271,76.994 53.833,77.242 53.833 C 77.392 53.833,78.833 52.989,78.833 52.901 C 78.833 52.787,78.606 52.837,78.083 53.064 M10.262 53.262 C 9.931 53.592,9.955 53.098,9.997 58.833 C 10.031 63.560,10.093 64.167,10.541 64.167 C 10.632 64.167,10.605 64.043,10.479 63.891 C 10.299 63.675,10.239 62.555,10.199 58.640 C 10.142 53.075,10.089 53.313,11.324 53.626 C 11.867 53.764,11.958 53.752,11.881 53.549 C 11.684 53.038,10.666 52.857,10.262 53.262 M102.762 53.429 C 102.618 53.573,102.500 53.725,102.500 53.768 C 102.500 53.887,103.135 53.519,103.251 53.332 C 103.413 53.069,103.050 53.140,102.762 53.429 M317.759 53.870 C 317.617 54.074,317.500 54.319,317.500 54.415 C 317.500 54.510,317.350 54.868,317.167 55.210 C 316.983 55.552,316.837 56.001,316.841 56.208 C 316.848 56.592,316.905 56.476,317.508 54.833 C 317.625 54.512,317.831 54.081,317.963 53.875 C 318.276 53.389,318.099 53.385,317.759 53.870 M24.583 53.986 C 24.858 54.158,25.346 54.348,25.667 54.407 C 26.103 54.488,25.998 54.409,25.250 54.092 C 24.061 53.588,23.911 53.564,24.583 53.986 M205.792 54.290 C 206.273 54.323,207.060 54.323,207.542 54.290 C 208.023 54.256,207.629 54.228,206.667 54.228 C 205.704 54.228,205.310 54.256,205.792 54.290 M14.316 54.658 C 15.067 55.014,15.354 55.029,14.946 54.691 C 14.821 54.587,14.463 54.459,14.151 54.406 C 13.601 54.313,13.607 54.321,14.316 54.658 M55.250 54.636 C 55.946 55.056,56.378 55.207,56.238 54.981 C 56.129 54.804,55.140 54.333,54.880 54.334 C 54.809 54.334,54.975 54.470,55.250 54.636 M220.521 54.667 C 220.517 54.712,220.619 55.125,220.746 55.583 C 220.886 56.088,220.979 56.252,220.981 56.000 C 220.984 55.662,220.542 54.381,220.521 54.667 M272.506 55.124 C 272.388 55.377,272.267 56.108,272.237 56.750 L 272.182 57.917 272.336 56.946 C 272.421 56.412,272.566 55.704,272.658 55.372 C 272.863 54.628,272.792 54.512,272.506 55.124 M310.205 55.167 C 310.205 55.487,310.240 55.619,310.282 55.458 C 310.323 55.298,310.323 55.035,310.282 54.875 C 310.240 54.715,310.205 54.846,310.205 55.167 M283.955 54.954 C 284.250 54.990,284.775 54.991,285.121 54.955 C 285.467 54.919,285.225 54.889,284.583 54.888 C 283.942 54.887,283.659 54.917,283.955 54.954 M294.631 54.956 C 295.115 54.990,295.865 54.990,296.297 54.956 C 296.730 54.921,296.333 54.894,295.417 54.894 C 294.500 54.895,294.146 54.923,294.631 54.956 M333.583 55.000 C 332.394 55.074,332.322 55.097,332.917 55.206 C 333.879 55.384,334.797 55.361,334.924 55.156 C 335.077 54.908,335.072 54.907,333.583 55.000 M27.500 55.153 C 27.500 55.374,28.001 55.579,28.875 55.715 C 29.693 55.842,29.666 55.756,28.792 55.450 C 28.402 55.314,27.952 55.148,27.792 55.083 C 27.616 55.011,27.500 55.039,27.500 55.153 M301.333 55.149 C 301.333 55.237,301.537 55.469,301.785 55.665 C 302.116 55.925,302.266 56.229,302.346 56.802 L 302.455 57.583 302.478 56.829 C 302.491 56.383,302.394 55.923,302.241 55.705 C 301.943 55.278,301.333 54.905,301.333 55.149 M328.083 55.276 C 326.819 55.546,326.150 55.822,325.500 56.339 C 325.163 56.608,325.147 56.650,325.417 56.561 C 325.600 56.500,325.909 56.307,326.104 56.132 C 326.321 55.938,326.895 55.752,327.582 55.655 C 328.200 55.567,328.790 55.442,328.894 55.376 C 328.998 55.310,329.758 55.210,330.583 55.155 L 332.083 55.054 330.667 55.041 C 329.887 55.033,328.725 55.139,328.083 55.276 M212.173 55.250 C 212.170 55.342,212.359 55.642,212.593 55.917 C 212.827 56.192,212.944 56.267,212.854 56.083 C 212.613 55.590,212.178 55.058,212.173 55.250 M281.292 55.511 C 280.948 55.693,280.667 55.879,280.667 55.924 C 280.667 55.970,280.967 55.854,281.333 55.667 C 281.700 55.480,282.000 55.291,282.000 55.247 C 282.000 55.138,281.999 55.138,281.292 55.511 M58.167 55.903 C 58.899 56.294,59.502 56.393,58.833 56.013 C 58.512 55.830,58.137 55.680,58.000 55.680 C 57.861 55.680,57.935 55.779,58.167 55.903 M99.059 55.832 C 98.862 55.912,98.647 56.063,98.582 56.169 C 98.516 56.275,98.695 56.241,98.982 56.093 C 99.267 55.945,99.500 55.789,99.500 55.746 C 99.500 55.652,99.511 55.650,99.059 55.832 M30.583 56.418 C 30.875 56.660,31.291 56.830,31.583 56.827 C 32.186 56.822,31.926 56.630,30.796 56.246 L 30.083 56.004 30.583 56.418 M310.381 57.083 C 310.382 57.542,310.415 57.709,310.453 57.456 C 310.491 57.203,310.490 56.828,310.451 56.623 C 310.411 56.418,310.380 56.625,310.381 57.083 M61.487 57.167 C 61.983 57.350,62.425 57.464,62.468 57.421 C 62.571 57.318,61.898 57.069,61.167 56.939 C 60.744 56.864,60.833 56.927,61.487 57.167 M21.000 57.318 C 21.556 57.633,22.119 57.712,21.760 57.425 C 21.582 57.283,21.282 57.169,21.093 57.172 C 20.819 57.176,20.800 57.205,21.000 57.318 M96.500 57.514 L 96.083 57.853 96.625 57.589 C 96.923 57.444,97.167 57.289,97.167 57.246 C 97.167 57.080,96.901 57.187,96.500 57.514 M34.500 57.821 C 34.821 58.003,35.196 58.153,35.333 58.153 C 35.638 58.153,34.912 57.751,34.333 57.598 C 34.020 57.516,34.062 57.571,34.500 57.821 M89.167 57.997 C 88.771 58.304,88.768 58.315,89.120 58.225 C 89.323 58.173,89.576 58.026,89.682 57.899 C 89.961 57.562,89.652 57.621,89.167 57.997 M213.360 58.698 C 213.325 59.736,214.548 59.631,201.003 59.758 C 192.721 59.836,188.767 59.931,188.392 60.061 C 187.978 60.204,190.810 60.239,200.131 60.206 C 214.375 60.156,213.671 60.247,213.456 58.481 C 213.398 58.013,213.382 58.050,213.360 58.698 M64.509 58.232 C 64.611 58.333,66.780 59.167,66.943 59.167 C 67.206 59.167,66.171 58.510,65.779 58.427 C 65.534 58.375,65.127 58.290,64.875 58.236 C 64.623 58.183,64.459 58.181,64.509 58.232 M24.477 58.670 C 25.385 59.082,25.526 59.080,25.023 58.661 C 24.807 58.481,24.432 58.335,24.190 58.337 C 23.809 58.340,23.847 58.385,24.477 58.670 M69.143 58.843 C 68.771 59.167,68.769 59.176,69.116 59.009 C 69.317 58.911,69.528 58.757,69.584 58.666 C 69.748 58.401,69.568 58.473,69.143 58.843 M37.594 59.018 C 37.738 59.251,38.730 59.669,39.120 59.660 C 39.290 59.656,39.167 59.543,38.833 59.395 C 37.696 58.892,37.475 58.824,37.594 59.018 M302.375 59.750 C 302.377 60.117,302.411 60.247,302.451 60.040 C 302.491 59.832,302.490 59.532,302.448 59.373 C 302.406 59.214,302.374 59.383,302.375 59.750 M112.019 59.654 C 112.009 59.784,111.876 60.028,111.724 60.195 C 111.572 60.363,111.526 60.500,111.620 60.500 C 111.906 60.500,112.199 60.036,112.116 59.716 C 112.070 59.537,112.031 59.512,112.019 59.654 M27.761 59.902 C 28.042 60.024,28.454 60.176,28.677 60.238 L 29.083 60.351 28.690 60.009 C 28.467 59.815,28.070 59.669,27.773 59.673 L 27.250 59.680 27.761 59.902 M92.574 59.911 C 92.396 60.046,92.325 60.156,92.417 60.156 C 92.508 60.156,92.729 60.046,92.907 59.911 C 93.085 59.777,93.155 59.667,93.064 59.667 C 92.972 59.667,92.751 59.777,92.574 59.911 M40.977 60.503 C 41.193 60.685,41.599 60.833,41.880 60.833 C 42.517 60.833,42.456 60.782,41.417 60.444 L 40.583 60.174 40.977 60.503 M324.214 66.750 L 324.228 73.417 324.330 67.250 C 324.385 63.858,324.379 60.858,324.316 60.583 C 324.253 60.308,324.207 63.083,324.214 66.750 M184.501 61.020 C 184.273 61.111,183.870 61.406,183.607 61.676 C 183.343 61.946,183.079 62.167,183.020 62.167 C 182.962 62.167,182.810 62.332,182.683 62.535 C 182.536 62.772,182.745 62.661,183.268 62.224 C 183.717 61.851,184.383 61.389,184.750 61.197 C 185.429 60.842,185.256 60.719,184.501 61.020 M31.260 61.245 C 31.438 61.379,31.696 61.489,31.833 61.489 C 31.978 61.488,31.908 61.388,31.667 61.250 C 31.119 60.937,30.848 60.933,31.260 61.245 M109.500 61.560 C 107.929 62.517,106.750 63.333,106.937 63.333 C 107.036 63.333,107.409 63.124,107.767 62.867 C 108.124 62.611,108.642 62.307,108.917 62.191 C 109.359 62.006,110.692 60.999,110.494 61.000 C 110.451 61.001,110.004 61.252,109.500 61.560 M280.365 61.356 C 280.485 61.433,283.583 61.490,287.250 61.484 C 290.917 61.478,293.842 61.447,293.750 61.415 C 293.381 61.286,280.163 61.228,280.365 61.356 M295.167 61.328 C 294.633 61.415,295.060 61.457,296.653 61.475 C 297.883 61.489,298.858 61.472,298.819 61.437 C 298.666 61.297,295.868 61.213,295.167 61.328 M44.250 61.741 C 44.617 61.974,45.104 62.164,45.333 62.162 C 45.684 62.160,45.642 62.110,45.065 61.848 C 43.912 61.324,43.512 61.272,44.250 61.741 M265.712 62.000 C 265.712 62.413,265.745 62.581,265.784 62.375 C 265.824 62.169,265.824 61.831,265.784 61.625 C 265.745 61.419,265.712 61.587,265.712 62.000 M82.417 62.086 L 81.917 62.504 82.417 62.305 C 82.692 62.195,83.026 62.006,83.161 61.886 C 83.640 61.456,82.948 61.642,82.417 62.086 M88.551 62.366 C 88.350 62.463,88.146 62.647,88.097 62.775 C 88.029 62.952,88.077 62.970,88.295 62.849 C 89.177 62.365,89.391 61.960,88.551 62.366 M34.333 62.485 C 34.890 62.800,35.452 62.879,35.093 62.592 C 34.915 62.450,34.615 62.336,34.426 62.338 C 34.152 62.342,34.134 62.372,34.333 62.485 M80.792 63.095 C 80.540 63.232,80.333 63.379,80.333 63.422 C 80.333 63.583,80.597 63.482,81.000 63.167 C 81.495 62.779,81.421 62.754,80.792 63.095 M48.167 63.234 C 48.396 63.355,48.808 63.499,49.083 63.554 C 49.522 63.641,49.501 63.613,48.917 63.331 C 48.173 62.972,47.508 62.885,48.167 63.234 M38.043 63.847 C 38.453 64.086,40.230 64.662,40.058 64.500 C 39.714 64.177,38.551 63.667,38.169 63.672 C 37.803 63.676,37.787 63.698,38.043 63.847 M86.143 64.009 C 85.834 64.279,85.821 64.316,86.083 64.182 C 86.649 63.892,86.926 63.672,86.727 63.669 C 86.622 63.668,86.360 63.821,86.143 64.009 M111.386 63.868 C 110.964 64.412,110.947 64.540,111.324 64.338 C 111.606 64.187,111.745 64.191,111.943 64.355 C 112.162 64.537,112.190 64.509,112.141 64.160 C 112.077 63.706,111.642 63.537,111.386 63.868 M78.977 64.328 C 78.760 64.508,78.665 64.658,78.766 64.661 C 78.866 64.664,79.084 64.517,79.250 64.333 C 79.636 63.907,79.486 63.904,78.977 64.328 M11.250 64.500 C 11.525 64.682,11.807 64.832,11.878 64.832 C 11.948 64.833,12.769 65.136,13.702 65.506 C 14.635 65.876,15.515 66.153,15.658 66.123 C 15.800 66.092,15.392 65.891,14.750 65.675 C 14.108 65.459,12.986 65.032,12.255 64.725 C 10.719 64.079,10.562 64.044,11.250 64.500 M51.218 64.464 C 51.532 64.812,52.333 65.061,52.333 64.810 C 52.333 64.731,52.305 64.667,52.270 64.667 C 52.236 64.667,51.917 64.546,51.562 64.398 C 50.919 64.130,50.918 64.130,51.218 64.464 M104.750 64.611 C 104.457 64.846,104.454 64.865,104.722 64.772 C 104.890 64.714,105.096 64.667,105.180 64.667 C 105.264 64.667,105.333 64.592,105.333 64.500 C 105.333 64.264,105.136 64.301,104.750 64.611 M191.875 64.782 C 192.035 64.823,192.298 64.823,192.458 64.782 C 192.619 64.740,192.487 64.705,192.167 64.705 C 191.846 64.705,191.715 64.740,191.875 64.782 M200.637 64.792 C 202.866 64.818,206.466 64.818,208.637 64.791 C 210.807 64.765,208.983 64.744,204.583 64.744 C 200.183 64.744,198.407 64.765,200.637 64.792 M41.356 65.078 C 41.494 65.216,42.667 65.674,42.667 65.590 C 42.667 65.471,41.719 65.000,41.480 65.000 C 41.369 65.000,41.313 65.035,41.356 65.078 M103.052 65.554 C 101.966 66.219,101.810 66.376,102.493 66.119 C 102.949 65.947,104.244 65.002,104.000 65.020 C 103.954 65.023,103.528 65.264,103.052 65.554 M53.730 65.467 C 53.840 65.646,55.349 66.170,55.739 66.164 C 56.047 66.160,55.444 65.841,54.781 65.657 C 54.432 65.561,54.026 65.435,53.879 65.379 C 53.704 65.312,53.653 65.343,53.730 65.467 M189.243 66.074 C 189.099 66.418,189.008 66.823,189.039 66.975 C 189.071 67.126,189.225 66.881,189.381 66.430 C 189.720 65.452,189.616 65.183,189.243 66.074 M310.246 65.722 C 310.177 65.890,309.962 66.092,309.768 66.170 L 309.417 66.312 309.771 66.323 C 310.182 66.335,310.568 65.942,310.452 65.631 C 310.397 65.483,310.333 65.512,310.246 65.722 M82.708 66.112 C 82.319 66.339,82.000 66.596,82.000 66.683 C 82.000 66.840,82.553 66.538,83.314 65.966 C 83.874 65.544,83.548 65.624,82.708 66.112 M148.372 66.333 C 148.372 66.654,148.406 66.785,148.448 66.625 C 148.490 66.465,148.490 66.202,148.448 66.042 C 148.406 65.881,148.372 66.012,148.372 66.333 M44.333 66.289 C 44.471 66.342,44.906 66.522,45.300 66.690 C 45.694 66.858,45.966 66.914,45.905 66.814 C 45.759 66.578,44.761 66.163,44.380 66.180 C 44.146 66.190,44.136 66.213,44.333 66.289 M306.458 66.287 C 306.756 66.324,307.244 66.324,307.542 66.287 C 307.840 66.250,307.596 66.220,307.000 66.220 C 306.404 66.220,306.160 66.250,306.458 66.287 M57.500 66.759 C 57.500 66.883,58.603 67.336,58.870 67.321 C 58.987 67.314,58.783 67.170,58.417 67.000 C 57.698 66.667,57.500 66.615,57.500 66.759 M17.907 67.075 C 18.085 67.217,18.385 67.331,18.574 67.328 C 18.983 67.322,18.681 67.111,18.000 66.928 C 17.600 66.820,17.596 66.826,17.907 67.075 M100.417 67.167 C 100.142 67.349,100.002 67.498,100.107 67.499 C 100.289 67.500,101.171 66.849,101.000 66.840 C 100.954 66.838,100.692 66.985,100.417 67.167 M235.730 67.361 C 235.981 67.746,236.481 68.099,236.581 67.962 C 236.600 67.937,236.350 67.692,236.027 67.417 C 235.442 66.919,235.441 66.919,235.730 67.361 M279.885 68.083 C 279.886 68.633,279.917 68.838,279.954 68.539 C 279.991 68.239,279.990 67.789,279.952 67.539 C 279.914 67.288,279.884 67.533,279.885 68.083 M80.143 67.828 C 79.631 68.254,79.955 68.259,80.500 67.833 C 80.729 67.654,80.831 67.506,80.727 67.504 C 80.622 67.502,80.360 67.648,80.143 67.828 M105.458 67.762 C 104.835 68.100,104.873 68.241,105.500 67.917 C 105.775 67.774,106.000 67.623,106.000 67.579 C 106.000 67.472,105.982 67.478,105.458 67.762 M21.145 68.291 C 21.583 68.597,23.322 69.335,23.583 69.326 C 23.841 69.317,22.860 68.819,21.750 68.396 C 21.044 68.127,20.866 68.096,21.145 68.291 M98.116 68.496 C 97.686 68.769,97.333 69.025,97.333 69.065 C 97.333 69.206,98.613 68.515,98.825 68.260 C 99.132 67.891,99.004 67.933,98.116 68.496 M50.240 68.504 C 50.693 68.681,51.090 68.799,51.122 68.767 C 51.202 68.687,49.878 68.165,49.622 68.174 C 49.509 68.179,49.787 68.327,50.240 68.504 M61.500 68.403 C 61.729 68.525,62.104 68.672,62.333 68.729 C 62.563 68.786,62.450 68.688,62.083 68.512 C 61.329 68.149,60.862 68.062,61.500 68.403 M71.957 68.486 C 71.272 68.925,71.177 69.079,71.781 68.772 C 72.073 68.624,72.359 68.427,72.416 68.335 C 72.550 68.118,72.510 68.131,71.957 68.486 M140.530 69.083 C 140.518 69.718,140.605 70.236,140.767 70.500 C 140.936 70.774,140.983 70.803,140.906 70.583 C 140.842 70.400,140.735 69.762,140.668 69.167 L 140.547 68.083 140.530 69.083 M188.858 69.250 L 188.873 70.417 189.032 69.548 C 189.138 68.966,189.133 68.581,189.017 68.381 C 188.886 68.156,188.847 68.368,188.858 69.250 M227.500 68.237 C 227.500 68.648,228.655 71.045,229.058 71.472 C 230.000 72.468,230.269 72.414,229.407 71.402 C 228.945 70.860,228.356 69.910,228.098 69.292 C 227.691 68.315,227.500 67.978,227.500 68.237 M10.068 68.564 C 10.019 68.691,10.008 69.123,10.044 69.523 L 10.108 70.250 10.138 69.386 C 10.165 68.580,10.198 68.517,10.625 68.453 L 11.083 68.383 10.620 68.358 C 10.359 68.344,10.117 68.434,10.068 68.564 M12.810 69.170 C 13.733 69.589,13.886 69.588,13.250 69.167 C 12.975 68.985,12.600 68.837,12.417 68.838 C 12.213 68.840,12.365 68.969,12.810 69.170 M77.821 69.273 C 77.482 69.641,77.470 69.683,77.750 69.535 C 78.418 69.180,78.773 68.844,78.487 68.839 C 78.343 68.836,78.043 69.031,77.821 69.273 M272.240 69.942 C 272.272 70.506,272.383 71.106,272.485 71.276 C 272.643 71.537,272.655 71.514,272.567 71.124 C 272.510 70.871,272.400 70.271,272.322 69.791 L 272.181 68.917 272.240 69.942 M96.333 69.696 C 95.824 70.037,95.717 70.161,96.000 70.082 C 96.229 70.018,96.602 69.786,96.830 69.566 C 97.364 69.049,97.254 69.078,96.333 69.696 M64.094 69.517 C 64.236 69.748,65.224 70.167,65.620 70.165 C 65.783 70.164,65.515 69.977,65.025 69.748 C 64.019 69.280,63.934 69.259,64.094 69.517 M149.750 69.819 C 150.190 70.297,150.833 70.775,150.833 70.624 C 150.833 70.595,150.477 70.279,150.042 69.923 C 149.314 69.328,149.290 69.320,149.750 69.819 M24.333 69.574 C 24.333 69.728,25.427 70.168,25.786 70.159 C 25.950 70.155,25.821 70.053,25.500 69.932 C 25.179 69.811,24.785 69.656,24.625 69.588 C 24.465 69.520,24.333 69.514,24.333 69.574 M69.917 69.845 C 69.642 70.021,69.502 70.165,69.607 70.166 C 69.711 70.166,69.973 70.019,70.190 69.839 C 70.685 69.426,70.566 69.429,69.917 69.845 M15.667 70.318 C 16.223 70.633,16.785 70.712,16.426 70.425 C 16.249 70.283,15.949 70.169,15.760 70.172 C 15.486 70.176,15.467 70.205,15.667 70.318 M55.167 70.417 C 55.396 70.548,55.658 70.655,55.750 70.655 C 55.842 70.655,55.729 70.548,55.500 70.417 C 55.271 70.286,55.008 70.178,54.917 70.178 C 54.825 70.178,54.938 70.286,55.167 70.417 M94.838 70.592 C 94.512 70.822,94.372 71.000,94.517 71.000 C 94.659 71.000,94.951 70.813,95.167 70.583 C 95.652 70.067,95.579 70.068,94.838 70.592 M101.000 70.515 C 100.723 70.741,100.695 70.798,100.917 70.683 C 101.460 70.402,101.762 70.172,101.583 70.173 C 101.492 70.174,101.229 70.327,101.000 70.515 M213.000 70.293 C 213.000 70.393,212.732 70.826,212.404 71.255 C 212.076 71.685,211.904 72.004,212.022 71.965 C 212.297 71.873,213.238 70.349,213.103 70.214 C 213.046 70.157,213.000 70.193,213.000 70.293 M189.007 70.697 C 188.997 71.091,189.358 71.955,189.441 71.737 C 189.478 71.639,189.397 71.301,189.261 70.987 C 189.124 70.674,189.010 70.543,189.007 70.697 M27.333 70.746 C 27.333 70.870,28.293 71.334,28.533 71.326 C 28.653 71.323,28.488 71.176,28.167 71.000 C 27.575 70.676,27.333 70.602,27.333 70.746 M220.860 71.105 C 220.845 71.300,220.717 71.738,220.575 72.078 C 220.432 72.419,220.349 72.784,220.389 72.891 C 220.522 73.239,221.020 71.811,220.953 71.275 C 220.916 70.985,220.875 70.909,220.860 71.105 M74.917 71.194 C 74.331 71.516,72.833 72.515,72.833 72.584 C 72.833 72.676,74.517 71.699,75.009 71.321 C 75.464 70.971,75.423 70.915,74.917 71.194 M9.999 74.875 C 9.969 76.869,9.938 78.623,9.931 78.774 C 9.915 79.079,10.420 79.469,10.599 79.290 C 10.662 79.227,10.618 79.059,10.501 78.918 C 10.350 78.736,10.253 77.571,10.171 74.955 L 10.054 71.250 9.999 74.875 M57.500 71.388 C 57.500 71.432,57.819 71.580,58.208 71.717 C 58.598 71.853,59.067 72.018,59.250 72.083 C 59.433 72.149,59.352 72.053,59.069 71.870 C 58.575 71.551,57.500 71.221,57.500 71.388 M170.548 71.457 C 171.078 71.490,171.903 71.490,172.381 71.456 C 172.859 71.422,172.425 71.395,171.417 71.396 C 170.408 71.396,170.017 71.424,170.548 71.457 M175.896 71.491 C 177.148 71.664,177.189 71.783,177.132 75.042 C 177.104 76.653,177.147 77.812,177.234 77.783 C 177.494 77.696,177.561 71.641,177.303 71.478 C 177.182 71.401,176.633 71.347,176.083 71.358 L 175.083 71.378 175.896 71.491 M19.311 71.757 C 20.017 72.063,20.175 72.059,19.760 71.745 C 19.582 71.610,19.282 71.503,19.093 71.507 C 18.840 71.511,18.897 71.577,19.311 71.757 M98.810 71.842 L 98.417 72.183 98.958 71.921 C 99.491 71.662,99.643 71.500,99.352 71.500 C 99.270 71.500,99.027 71.654,98.810 71.842 M92.083 72.246 C 91.717 72.471,91.483 72.659,91.564 72.661 C 91.731 72.667,92.833 72.009,92.833 71.903 C 92.833 71.791,92.785 71.813,92.083 72.246 M31.000 72.221 C 31.137 72.356,31.512 72.520,31.833 72.586 C 32.566 72.736,32.462 72.636,31.500 72.265 C 30.906 72.036,30.802 72.027,31.000 72.221 M293.793 72.262 C 293.680 72.375,294.358 73.483,294.547 73.493 C 294.793 73.506,294.877 72.978,294.692 72.573 C 294.523 72.201,294.026 72.030,293.793 72.262 M61.032 72.742 C 62.188 73.222,63.084 73.438,62.938 73.201 C 62.829 73.025,60.698 72.328,60.307 72.340 C 60.184 72.344,60.510 72.525,61.032 72.742 M96.895 72.907 C 96.315 73.159,95.996 73.514,96.458 73.392 C 96.733 73.320,97.679 72.671,97.500 72.677 C 97.454 72.678,97.182 72.782,96.895 72.907 M23.083 73.176 C 23.450 73.349,23.863 73.492,24.000 73.492 C 24.137 73.492,23.923 73.344,23.523 73.163 C 23.124 72.982,22.711 72.839,22.607 72.847 C 22.502 72.854,22.717 73.002,23.083 73.176 M71.491 73.266 C 71.175 73.505,70.598 73.839,70.208 74.011 C 69.583 74.285,69.143 74.839,69.729 74.614 C 69.925 74.539,72.121 73.085,72.319 72.898 C 72.607 72.629,71.948 72.921,71.491 73.266 M197.708 72.958 C 199.794 72.985,203.206 72.985,205.292 72.958 C 207.377 72.932,205.671 72.910,201.500 72.910 C 197.329 72.910,195.623 72.932,197.708 72.958 M34.083 73.487 C 34.542 73.766,35.104 73.989,35.333 73.983 C 35.667 73.974,35.585 73.896,34.917 73.586 C 33.601 72.976,33.159 72.924,34.083 73.487 M232.083 73.628 C 232.273 73.816,232.741 73.999,233.167 74.051 L 233.917 74.142 233.228 73.921 C 232.849 73.799,232.361 73.608,232.144 73.497 C 231.750 73.296,231.750 73.296,232.083 73.628 M142.196 74.068 C 142.643 74.819,143.728 75.921,144.333 76.239 C 145.238 76.714,145.532 76.655,144.710 76.163 C 144.230 75.876,143.381 75.141,142.823 74.529 C 142.006 73.632,141.884 73.543,142.196 74.068 M273.877 74.361 C 274.268 75.062,274.806 75.534,275.917 76.150 C 276.283 76.353,276.396 76.389,276.167 76.229 C 275.938 76.069,275.245 75.433,274.627 74.815 C 273.583 73.770,273.531 73.739,273.877 74.361 M65.642 74.403 C 66.714 74.921,66.848 74.941,66.286 74.499 C 66.052 74.314,65.611 74.121,65.305 74.068 C 64.834 73.986,64.886 74.037,65.642 74.403 M26.333 74.403 C 26.563 74.525,26.938 74.681,27.167 74.750 L 27.583 74.875 27.140 74.521 C 26.897 74.326,26.522 74.170,26.307 74.173 L 25.917 74.180 26.333 74.403 M37.381 74.829 C 37.636 75.033,38.161 75.232,38.547 75.272 L 39.250 75.344 38.500 75.027 C 37.112 74.441,36.832 74.391,37.381 74.829 M111.940 74.915 C 111.888 75.052,111.430 75.429,110.923 75.753 C 109.958 76.371,109.759 76.599,110.349 76.412 C 111.042 76.192,112.167 75.311,112.167 74.988 C 112.167 74.604,112.072 74.573,111.940 74.915 M219.007 75.076 C 218.795 75.301,218.331 75.687,217.975 75.934 C 217.619 76.181,217.360 76.416,217.400 76.456 C 217.494 76.550,219.207 75.204,219.383 74.898 C 219.584 74.549,219.436 74.619,219.007 75.076 M245.479 74.838 C 249.364 74.900,252.964 74.897,253.479 74.831 C 253.995 74.765,250.817 74.713,246.417 74.717 L 238.417 74.724 245.479 74.838 M182.167 74.909 C 182.167 75.067,183.220 76.184,183.523 76.346 C 183.998 76.600,183.905 76.470,183.000 75.616 C 182.542 75.183,182.167 74.865,182.167 74.909 M29.149 75.508 C 29.552 75.691,29.915 75.807,29.955 75.767 C 30.061 75.661,29.498 75.396,28.917 75.278 C 28.531 75.200,28.584 75.252,29.149 75.508 M40.997 76.161 C 41.120 76.391,41.346 76.500,41.700 76.500 C 42.318 76.500,42.276 76.432,41.441 76.083 C 40.827 75.826,40.819 75.828,40.997 76.161 M85.792 76.095 C 85.540 76.232,85.333 76.379,85.333 76.422 C 85.333 76.583,85.597 76.482,86.000 76.167 C 86.495 75.779,86.421 75.754,85.792 76.095 M258.220 77.000 C 258.220 77.596,258.250 77.840,258.287 77.542 C 258.324 77.244,258.324 76.756,258.287 76.458 C 258.250 76.160,258.220 76.404,258.220 77.000 M31.667 76.568 C 31.667 76.605,32.134 76.794,32.704 76.986 C 33.397 77.220,33.660 77.260,33.496 77.107 C 33.117 76.753,31.667 76.326,31.667 76.568 M90.542 76.839 C 90.335 76.921,90.167 77.068,90.167 77.165 C 90.167 77.263,90.352 77.219,90.583 77.068 C 90.813 76.918,91.000 76.766,91.000 76.731 C 91.000 76.653,91.007 76.651,90.542 76.839 M324.181 77.030 C 324.173 77.275,324.049 77.594,323.905 77.738 C 323.685 77.957,323.682 78.000,323.884 78.000 C 324.305 78.000,324.500 77.604,324.342 77.073 L 324.195 76.583 324.181 77.030 M294.361 77.325 C 294.258 77.622,294.248 77.833,294.339 77.833 C 294.511 77.833,294.755 77.033,294.623 76.900 C 294.576 76.854,294.459 77.045,294.361 77.325 M44.417 77.500 C 45.278 77.916,45.593 77.916,44.833 77.500 C 44.512 77.324,44.137 77.180,44.000 77.179 C 43.862 77.179,44.050 77.323,44.417 77.500 M185.589 77.307 C 185.873 77.566,186.864 77.834,187.483 77.818 L 188.083 77.804 187.333 77.597 C 186.131 77.266,185.412 77.146,185.589 77.307 M214.167 77.443 C 213.571 77.576,212.633 77.752,212.083 77.835 C 211.258 77.958,211.387 77.970,212.818 77.899 C 214.334 77.825,215.500 77.541,215.500 77.246 C 215.500 77.146,215.474 77.150,214.167 77.443 M278.167 77.263 C 278.167 77.527,279.574 77.866,280.899 77.920 C 281.734 77.954,282.229 77.946,282.000 77.903 C 281.771 77.859,281.058 77.719,280.417 77.592 C 278.599 77.231,278.167 77.168,278.167 77.263 M316.379 77.498 C 316.403 77.766,316.535 77.934,316.750 77.972 C 317.052 78.024,317.057 78.009,316.811 77.807 C 316.661 77.684,316.494 77.471,316.440 77.333 C 316.386 77.196,316.359 77.270,316.379 77.498 M148.667 77.669 C 148.804 77.757,149.135 77.829,149.403 77.831 C 150.047 77.834,149.907 77.738,149.083 77.612 C 148.629 77.542,148.496 77.560,148.667 77.669 M35.212 77.831 C 35.705 78.148,37.333 78.659,37.333 78.497 C 37.333 78.285,36.856 78.063,36.167 77.954 C 35.846 77.903,35.433 77.812,35.250 77.752 C 34.948 77.652,34.944 77.659,35.212 77.831 M87.866 78.348 C 86.950 79.021,86.981 79.102,87.958 78.593 C 89.162 77.965,89.320 77.839,88.908 77.836 C 88.720 77.834,88.251 78.065,87.866 78.348 M48.006 78.900 C 48.140 79.028,48.512 79.182,48.833 79.241 C 49.409 79.348,49.407 79.345,48.690 79.008 C 47.836 78.607,47.672 78.581,48.006 78.900 M105.458 79.095 C 105.206 79.232,105.000 79.372,105.000 79.406 C 105.000 79.549,105.671 79.279,105.848 79.065 C 106.087 78.778,106.036 78.782,105.458 79.095 M85.313 80.000 C 84.825 80.367,84.341 80.667,84.239 80.667 C 84.136 80.667,83.909 80.831,83.734 81.031 C 83.429 81.381,83.442 81.380,84.083 80.994 C 85.201 80.321,86.566 79.333,86.378 79.333 C 86.280 79.333,85.801 79.633,85.313 80.000 M265.542 79.917 C 265.544 80.283,265.578 80.414,265.618 80.206 C 265.658 79.999,265.656 79.699,265.615 79.540 C 265.573 79.380,265.540 79.550,265.542 79.917 M11.833 79.744 C 11.833 79.918,13.009 80.499,13.353 80.495 C 13.699 80.491,13.713 80.468,13.463 80.322 C 13.098 80.110,11.833 79.661,11.833 79.744 M79.149 80.157 C 78.840 80.414,78.811 80.490,79.021 80.494 C 79.307 80.500,79.774 80.051,79.631 79.908 C 79.585 79.863,79.368 79.974,79.149 80.157 M51.167 80.171 C 51.167 80.387,51.971 80.700,52.320 80.620 C 52.483 80.583,52.338 80.454,51.938 80.280 C 51.179 79.951,51.167 79.949,51.167 80.171 M103.341 80.437 C 102.475 81.052,102.497 81.083,103.458 80.601 C 103.940 80.359,104.333 80.125,104.333 80.081 C 104.333 79.893,103.877 80.057,103.341 80.437 M243.860 80.792 C 243.544 81.060,243.528 81.182,243.657 82.302 C 243.734 82.972,243.759 83.665,243.713 83.842 C 243.519 84.584,244.012 86.333,244.415 86.333 C 245.005 86.333,245.277 85.897,244.767 85.769 C 244.202 85.627,243.995 84.890,243.952 82.863 C 243.905 80.617,243.629 80.769,247.966 80.656 L 251.583 80.563 247.893 80.531 C 244.593 80.503,244.167 80.531,243.860 80.792 M253.125 80.621 C 253.423 80.658,253.910 80.658,254.208 80.621 C 254.506 80.584,254.262 80.553,253.667 80.553 C 253.071 80.553,252.827 80.584,253.125 80.621 M265.353 81.028 C 265.342 81.181,265.290 81.443,265.237 81.611 C 265.147 81.901,265.151 81.901,265.332 81.620 C 265.437 81.456,265.489 81.194,265.447 81.036 C 265.379 80.778,265.370 80.778,265.353 81.028 M16.089 81.485 C 16.183 81.582,16.521 81.704,16.839 81.758 C 17.530 81.875,17.191 81.610,16.417 81.427 C 16.068 81.345,15.969 81.363,16.089 81.485 M46.083 82.065 C 46.809 82.397,47.667 82.557,47.667 82.361 C 47.667 82.270,47.348 82.146,46.958 82.086 C 46.569 82.025,46.100 81.944,45.917 81.906 C 45.733 81.868,45.808 81.940,46.083 82.065 M19.643 82.839 C 19.860 83.019,20.235 83.161,20.477 83.154 C 20.877 83.143,20.857 83.114,20.250 82.833 C 19.378 82.430,19.155 82.432,19.643 82.839 M58.000 82.816 C 58.137 82.892,58.475 83.000,58.750 83.054 L 59.250 83.153 58.750 82.917 C 58.187 82.652,57.551 82.566,58.000 82.816 M79.542 83.498 C 79.244 83.680,79.000 83.863,79.000 83.906 C 79.000 84.056,79.984 83.637,80.177 83.404 C 80.455 83.069,80.177 83.111,79.542 83.498 M50.250 83.589 C 50.945 83.907,51.353 83.901,50.926 83.578 C 50.749 83.443,50.411 83.339,50.176 83.347 C 49.751 83.360,49.751 83.361,50.250 83.589 M22.810 84.172 C 23.027 84.352,23.402 84.498,23.643 84.496 C 24.025 84.493,23.987 84.449,23.357 84.163 C 22.449 83.751,22.307 83.753,22.810 84.172 M97.122 84.237 C 96.231 84.774,96.166 84.885,96.925 84.573 C 97.617 84.288,97.944 84.055,97.821 83.932 C 97.781 83.892,97.467 84.029,97.122 84.237 M263.330 84.238 C 262.680 84.664,262.241 85.130,262.369 85.258 C 262.482 85.371,264.045 84.283,264.128 84.033 C 264.225 83.743,263.994 83.802,263.330 84.238 M72.020 84.516 C 71.618 84.795,70.887 85.249,70.395 85.527 C 69.903 85.805,69.500 86.069,69.500 86.115 C 69.500 86.225,71.306 85.207,71.814 84.810 C 72.033 84.640,72.305 84.500,72.419 84.500 C 72.533 84.500,72.719 84.387,72.833 84.250 C 73.163 83.853,72.812 83.968,72.020 84.516 M53.310 84.837 C 54.218 85.249,54.359 85.247,53.857 84.828 C 53.640 84.648,53.265 84.502,53.023 84.504 C 52.642 84.507,52.680 84.551,53.310 84.837 M77.401 84.859 L 77.083 85.218 77.542 84.923 C 78.014 84.619,78.104 84.500,77.859 84.500 C 77.782 84.500,77.575 84.662,77.401 84.859 M25.917 85.412 C 26.283 85.638,26.771 85.819,27.000 85.814 L 27.417 85.805 26.999 85.678 C 26.769 85.608,26.342 85.427,26.049 85.275 C 25.245 84.860,25.161 84.947,25.917 85.412 M64.333 85.387 C 64.471 85.527,64.883 85.689,65.250 85.745 L 65.917 85.848 65.406 85.612 C 64.472 85.180,64.043 85.090,64.333 85.387 M56.189 85.911 C 56.339 86.062,57.500 86.504,57.500 86.410 C 57.500 86.359,57.240 86.208,56.922 86.075 C 56.342 85.832,56.044 85.766,56.189 85.911 M68.944 86.355 C 68.776 86.452,68.340 86.504,67.975 86.469 C 67.403 86.415,67.352 86.435,67.605 86.620 C 68.018 86.922,68.515 86.879,69.000 86.500 C 69.455 86.144,69.428 86.074,68.944 86.355 M253.000 86.667 C 253.137 86.756,254.112 86.828,255.167 86.828 C 256.221 86.828,257.196 86.756,257.333 86.667 C 257.501 86.558,256.788 86.505,255.167 86.505 C 253.546 86.505,252.832 86.558,253.000 86.667 M60.250 87.497 C 60.617 87.677,61.029 87.820,61.167 87.815 C 61.447 87.805,60.641 87.430,60.000 87.272 C 59.767 87.215,59.877 87.314,60.250 87.497 M72.910 87.511 C 72.728 87.805,72.920 87.846,73.262 87.587 C 73.544 87.374,73.549 87.343,73.302 87.339 C 73.146 87.336,72.970 87.413,72.910 87.511 M32.907 88.089 C 33.085 88.223,33.385 88.330,33.574 88.327 C 33.827 88.322,33.769 88.256,33.356 88.077 C 32.649 87.770,32.491 87.774,32.907 88.089 M70.718 88.926 L 70.250 89.351 70.750 89.098 C 71.605 88.666,71.798 88.506,71.468 88.503 C 71.312 88.501,70.975 88.691,70.718 88.926 M88.565 89.482 C 86.776 90.618,86.271 90.994,86.532 90.997 C 86.687 90.999,86.856 90.931,86.908 90.847 C 86.960 90.763,87.487 90.423,88.077 90.093 C 89.063 89.542,89.459 89.221,89.308 89.096 C 89.276 89.070,88.942 89.243,88.565 89.482 M35.989 89.404 C 36.097 89.534,36.500 89.693,36.885 89.757 C 37.269 89.821,37.786 89.976,38.033 90.103 C 38.566 90.375,38.891 90.405,38.434 90.140 C 37.396 89.537,35.668 89.017,35.989 89.404 M66.613 89.876 C 66.904 89.990,67.198 90.140,67.266 90.208 C 67.334 90.277,67.545 90.330,67.736 90.327 C 68.241 90.317,67.455 89.909,66.667 89.771 L 66.083 89.670 66.613 89.876 M39.477 90.670 C 39.876 90.852,40.251 90.997,40.310 90.993 C 40.520 90.979,39.245 90.347,39.000 90.344 C 38.862 90.342,39.077 90.489,39.477 90.670 M43.240 92.074 C 43.418 92.217,43.681 92.327,43.824 92.320 C 44.048 92.309,44.049 92.294,43.833 92.214 C 43.696 92.163,43.433 92.053,43.250 91.968 C 42.922 91.817,42.922 91.819,43.240 92.074 M84.260 92.089 C 84.001 92.285,83.988 92.333,84.198 92.333 C 84.342 92.333,84.553 92.221,84.667 92.083 C 84.931 91.765,84.683 91.768,84.260 92.089 M44.667 92.667 C 44.987 92.842,45.362 92.988,45.500 92.989 C 45.637 92.991,45.423 92.844,45.023 92.663 C 44.104 92.246,43.902 92.248,44.667 92.667 M82.477 93.161 C 82.260 93.341,82.165 93.491,82.266 93.494 C 82.366 93.498,82.584 93.350,82.750 93.167 C 83.136 92.740,82.986 92.737,82.477 93.161 M46.097 93.224 C 46.288 93.365,46.663 93.526,46.930 93.582 L 47.417 93.684 47.000 93.446 C 46.323 93.060,45.647 92.894,46.097 93.224 M49.506 94.572 C 49.640 94.704,49.975 94.858,50.250 94.914 L 50.750 95.017 50.167 94.682 C 49.479 94.288,49.162 94.235,49.506 94.572 M79.208 95.186 C 78.640 95.550,78.456 95.794,78.958 95.518 C 79.341 95.308,79.940 94.845,79.833 94.841 C 79.787 94.840,79.506 94.995,79.208 95.186 M52.669 95.919 C 52.772 96.044,53.095 96.195,53.387 96.255 C 53.678 96.315,54.554 96.612,55.333 96.914 C 56.766 97.468,57.667 97.734,57.667 97.600 C 57.667 97.560,57.160 97.362,56.542 97.160 C 55.923 96.957,55.192 96.658,54.917 96.494 C 54.210 96.072,52.415 95.613,52.669 95.919 M77.917 95.927 C 77.642 96.069,77.304 96.302,77.167 96.444 C 76.994 96.621,77.133 96.593,77.614 96.353 C 77.997 96.162,78.358 95.929,78.415 95.836 C 78.553 95.613,78.508 95.622,77.917 95.927 M59.336 98.401 C 59.474 98.543,59.849 98.709,60.169 98.770 C 60.901 98.910,60.793 98.802,59.833 98.432 C 59.198 98.187,59.122 98.182,59.336 98.401 M73.875 98.380 C 73.458 98.570,73.374 98.833,73.730 98.833 C 73.962 98.833,74.436 98.375,74.315 98.267 C 74.279 98.234,74.081 98.285,73.875 98.380 M62.686 99.802 C 62.904 99.968,63.421 100.200,63.833 100.318 C 64.246 100.435,64.944 100.711,65.385 100.931 C 66.970 101.720,68.371 101.940,69.067 101.510 C 69.790 101.063,69.860 100.891,69.175 101.246 C 68.216 101.742,65.799 101.136,63.141 99.733 C 62.510 99.400,62.216 99.445,62.686 99.802 M71.463 99.912 C 70.600 100.408,70.510 100.536,71.179 100.313 C 71.745 100.124,72.298 99.730,72.157 99.615 C 72.116 99.582,71.804 99.716,71.463 99.912 " stroke="none" fill="#ffffff" fill-rule="evenodd"></path></g></svg>